<svg xmlns="http://www.w3.org/2000/svg" version="1.1" xmlns:xlink="http://www.w3.org/1999/xlink" xmlns:svgjs="http://svgjs.dev/svgjs" viewBox="0 0 800 800" opacity="0.27"><defs><filter id="bbburst-blur-1" x="-100%" y="-100%" width="400%" height="400%"><feGaussianBlur in="SourceGraphic" stdDeviation="1"></feGaussianBlur></filter><filter id="bbburst-blur-2" x="-100%" y="-100%" width="400%" height="400%"><feGaussianBlur in="SourceGraphic" stdDeviation="2"></feGaussianBlur></filter><filter id="bbburst-blur-3" x="-100%" y="-100%" width="400%" height="400%"><feGaussianBlur in="SourceGraphic" stdDeviation="4"></feGaussianBlur></filter><filter id="bbburst-blur-4" x="-100%" y="-100%" width="400%" height="400%"><feGaussianBlur in="SourceGraphic" stdDeviation="12"></feGaussianBlur></filter><symbol id="bbburst-shape-1" viewBox="0 0 194 167"><path d="m97 0 96.129 166.5H.871L97 0Z"></path></symbol><symbol id="bbburst-shape-4" viewBox="0 0 149 143"><path d="M71.647 2.781c.898-2.764 4.808-2.764 5.706 0l15.445 47.534a3 3 0 0 0 2.853 2.073h49.98c2.906 0 4.115 3.719 1.764 5.427L106.96 87.193a2.999 2.999 0 0 0-1.09 3.354l15.445 47.534c.898 2.764-2.266 5.062-4.617 3.354l-40.435-29.378a3 3 0 0 0-3.526 0l-40.435 29.378c-2.351 1.708-5.515-.59-4.617-3.354L43.13 90.547a3 3 0 0 0-1.09-3.354L1.605 57.815c-2.35-1.708-1.142-5.427 1.764-5.427h49.98a3 3 0 0 0 2.853-2.073L71.647 2.781Z"></path></symbol><symbol id="bbburst-shape-6" viewBox="0 0 133 116"><path d="M59.7487 10.2513c-13.6683-13.66839-35.8291-13.66839-49.4974 0-13.66839 13.6683-13.66839 35.8291 0 49.4974l49.4974-49.4974ZM66.5 66.5 41.7513 91.2487 66.5 115.997l24.7487-24.7483L66.5 66.5Zm56.249-6.7513c13.668-13.6683 13.668-35.8291 0-49.4974-13.669-13.66839-35.8294-13.66839-49.4977 0l49.4977 49.4974Zm-112.4977 0 31.5 31.5 49.4974-49.4974-31.5-31.5-49.4974 49.4974Zm80.9974 31.5 31.5003-31.5-49.4977-49.4974-31.5 31.5 49.4974 49.4974Z"></path></symbol><symbol id="bbburst-shape-8" viewBox="0 0 87 168"><path d="m12 12 31.2546 18.0749c16.4102 9.4902 20.014 31.6325 7.4603 45.8369L36.3296 92.1884c-12.5684 14.2206-8.9394 36.3916 7.5068 45.8636L75 156" stroke-width="14" stroke-linecap="round" stroke-linejoin="round"></path></symbol><symbol id="bbburst-shape-10" viewBox="0 0 145 145"><circle cx="72.5" cy="72.5" r="61.5" fill="none" stroke-width="22"></circle></symbol></defs><use xlink:href="#bbburst-shape-10" width="14.702353920050326" opacity="0.8207439376282182" transform="matrix(0.9635673681202074,-0.267465749384658,0.267465749384658,0.9635673681202074,543.146382282522,308.1626721864156)" fill="none" stroke="#2c2891"></use><use xlink:href="#bbburst-shape-4" width="33.40645172627926" opacity="0.22873158226238077" transform="matrix(0.9546635321918437,-0.29768698376481373,0.29768698376481373,0.9546635321918437,577.787216553483,-343.187126095642)" fill="#2c2891" filter="url(#bbburst-blur-3)"></use><use xlink:href="#bbburst-shape-4" width="5.247717149454104" opacity="0.9731092475197606" transform="matrix(0.9576385623911364,0.28797288730267223,-0.28797288730267223,0.9576385623911364,904.5935473051717,390.54588798093795)" fill="#ffa6d5"></use><use xlink:href="#bbburst-shape-4" width="11.36430246921237" opacity="0.7381157335572739" transform="matrix(0.9565246531437601,0.2916514836722239,-0.2916514836722239,0.9565246531437601,894.9528894457583,154.36440266574556)" fill="#ffbd9b"></use><use xlink:href="#bbburst-shape-6" width="9.326186797011204" opacity="0.9429213382464334" transform="matrix(0.797842133702182,0.6028664277346595,-0.6028664277346595,0.797842133702182,1008.883646593302,428.6222292029745)" fill="#2c2891"></use><use xlink:href="#bbburst-shape-4" width="6.4619421930246235" opacity="0.6496151991889445" transform="matrix(0.7405937885328823,-0.6719530045966849,0.6719530045966849,0.7405937885328823,519.4898757182302,155.67759758526535)" fill="#ffa6d5" filter="url(#bbburst-blur-1)"></use><use xlink:href="#bbburst-shape-6" width="33.477462577901946" opacity="0.536575709930121" transform="matrix(0.9997954341365529,0.020225970426697316,-0.020225970426697316,0.9997954341365529,605.8752917358062,-24.943682201285185)" fill="#00a19d" filter="url(#bbburst-blur-1)"></use><use xlink:href="#bbburst-shape-8" width="20.098201345662766" opacity="0.673239040163805" transform="matrix(0.9337243794285658,0.3579927139771698,-0.3579927139771698,0.9337243794285658,626.59114512259,311.61654011717496)" fill="none" stroke="#00a19d"></use><use xlink:href="#bbburst-shape-4" width="34.82849193106343" opacity="0.4968176171519185" transform="matrix(0.9563020648334573,0.29238050686608036,-0.29238050686608036,0.9563020648334573,505.25675630181536,100.74242597965639)" fill="#2c2891" filter="url(#bbburst-blur-1)"></use><use xlink:href="#bbburst-shape-6" width="9.634356388042038" opacity="0.8846572152440724" transform="matrix(0.837226568627991,0.5468561719349977,-0.5468561719349977,0.837226568627991,900.7566316430294,444.6219093080452)" fill="#ffbd9b"></use><use xlink:href="#bbburst-shape-6" width="10.016056401776378" opacity="0.8394973604284244" transform="matrix(0.9743804612123764,-0.22490601772197344,0.22490601772197344,0.9743804612123764,545.6035257550737,393.9527710001195)" fill="#00a19d"></use><use xlink:href="#bbburst-shape-10" width="17.97516611153106" opacity="0.6773180844389515" transform="matrix(0.8769347045490035,0.480609533777215,-0.480609533777215,0.8769347045490035,787.6251945917618,189.13689106676264)" fill="none" stroke="#ff5c58"></use><use xlink:href="#bbburst-shape-4" width="8.326677826221983" opacity="0.9242664995889479" transform="matrix(0.8049822763889563,-0.5932988578277006,0.5932988578277006,0.8049822763889563,484.4960417305032,468.8679488142894)" fill="#ffa6d5"></use><use xlink:href="#bbburst-shape-8" width="17.516659747887633" opacity="0.7345577992084286" transform="matrix(0.983817797141611,-0.17917182263801382,0.17917182263801382,0.983817797141611,537.3742259374634,215.13922324036776)" fill="none" stroke="#2c2891"></use><use xlink:href="#bbburst-shape-10" width="10.996540005794843" opacity="0.8770345074685048" transform="matrix(0.8826797182069783,0.46997501536363545,-0.46997501536363545,0.8826797182069783,869.2876864602438,397.88022723221906)" fill="none" stroke="#2c2891"></use><use xlink:href="#bbburst-shape-8" width="5.2111644100593395" opacity="0.9437076344433023" transform="matrix(0.9974707995968201,0.07107745037408436,-0.07107745037408436,0.9974707995968201,817.8247782664444,345.10651285928714)" fill="none" stroke="#ffa6d5"></use><use xlink:href="#bbburst-shape-6" width="30.143393334502882" opacity="0.5193545300687006" transform="matrix(0.8713241663321474,-0.4907078531729326,0.4907078531729326,0.8713241663321474,172.45985866186848,221.81855026735946)" fill="#ffa6d5" filter="url(#bbburst-blur-1)"></use><use xlink:href="#bbburst-shape-1" width="36.85855554270451" opacity="0.4189259977699451" transform="matrix(0.9987303948577853,0.050374580764631686,-0.050374580764631686,0.9987303948577853,449.9910666986522,-62.886438570947405)" fill="#ffa6d5" filter="url(#bbburst-blur-2)"></use><use xlink:href="#bbburst-shape-6" width="20.466946533064853" opacity="0.6836313008151971" transform="matrix(0.9983569519374791,-0.05730092946982766,0.05730092946982766,0.9983569519374791,491.95214490713516,244.67700250276306)" fill="#ff5c58"></use><use xlink:href="#bbburst-shape-10" width="41.6914699655628" opacity="0.3604970405400496" transform="matrix(0.8728839429277113,-0.48792788624854383,0.48792788624854383,0.8728839429277113,28.953849981838914,148.03508225940476)" fill="none" stroke="#ffa6d5" filter="url(#bbburst-blur-2)"></use><use xlink:href="#bbburst-shape-4" width="54.56493175799173" opacity="0.07115048865787887" transform="matrix(0.9114298939738562,0.411455402651132,-0.411455402651132,0.9114298939738562,381.9313775601511,-318.49081447139906)" fill="#00a19d" filter="url(#bbburst-blur-3)"></use><use xlink:href="#bbburst-shape-6" width="7.774638457132477" opacity="0.9042262299701813" transform="matrix(0.9531679252939711,-0.30244157483849116,0.30244157483849116,0.9531679252939711,580.0628558726842,409.95631775184876)" fill="#00a19d"></use><use xlink:href="#bbburst-shape-10" width="5.053603467201097" opacity="0.9554087620776763" transform="matrix(0.8737838792207874,0.48631443780117445,-0.48631443780117445,0.8737838792207874,950.1886873270704,434.6457128326427)" fill="none" stroke="#00a19d"></use><use xlink:href="#bbburst-shape-10" width="16.310197421230214" opacity="0.7874859537921525" transform="matrix(0.9997422281919482,-0.022704122308479922,0.022704122308479922,0.9997422281919482,631.2993010283122,251.22366372049783)" fill="none" stroke="#ffa6d5"></use><use xlink:href="#bbburst-shape-8" width="33.673102303171746" opacity="0.2886249865200179" transform="matrix(0.8193329275583999,-0.573318021536548,0.573318021536548,0.8193329275583999,-118.41289115387497,258.2310103674162)" fill="none" stroke="#ffbd9b" filter="url(#bbburst-blur-2)"></use><use xlink:href="#bbburst-shape-10" width="8.045146843803542" opacity="0.8645255570265604" transform="matrix(0.8534871881471563,-0.5211138260194799,0.5211138260194799,0.8534871881471563,453.1802027802449,448.6914489698677)" fill="none" stroke="#ffbd9b"></use><use xlink:href="#bbburst-shape-4" width="16.545306217599325" opacity="0.7141152258142145" transform="matrix(0.96503659104369,0.262115199762955,-0.262115199762955,0.96503659104369,619.0365483144519,344.4152104472243)" fill="#00a19d"></use><use xlink:href="#bbburst-shape-10" width="11.535970050016788" opacity="0.7949871904863833" transform="matrix(0.9929721881907003,-0.11834793399030054,0.11834793399030054,0.9929721881907003,721.7005160832549,200.03969319946697)" fill="none" stroke="#2c2891"></use><use xlink:href="#bbburst-shape-6" width="8.708423466514525" opacity="0.89899953070564" transform="matrix(0.9585311396559408,0.2849878143182325,-0.2849878143182325,0.9585311396559408,855.5932298904204,330.13879826175963)" fill="#ff5c58"></use><use xlink:href="#bbburst-shape-4" width="9.55936269702287" opacity="0.8592161699934143" transform="matrix(0.9924021440330838,0.12303651701238333,-0.12303651701238333,0.9924021440330838,810.7000886042769,265.78608119292267)" fill="#2c2891"></use><use xlink:href="#bbburst-shape-8" width="12.737812153437572" opacity="0.8291217501410753" transform="matrix(0.9999196053547503,-0.012680016845429822,0.012680016845429822,0.9999196053547503,751.7009096944419,233.25725100449586)" fill="none" stroke="#ffa6d5"></use><use xlink:href="#bbburst-shape-1" width="21.173508869889684" opacity="0.5684600422334993" transform="matrix(0.9688367177119335,-0.247700251136666,0.247700251136666,0.9688367177119335,268.75548269490935,324.4773231511231)" fill="#00a19d" filter="url(#bbburst-blur-1)"></use><use xlink:href="#bbburst-shape-6" width="48.935364101889725" opacity="0.2610655732352276" transform="matrix(0.7357592611000539,-0.6772431688142028,0.6772431688142028,0.7357592611000539,-153.47285262414232,199.2100269481545)" fill="#ffbd9b" filter="url(#bbburst-blur-2)"></use><use xlink:href="#bbburst-shape-4" width="31.180791553118503" opacity="0.3744982829221304" transform="matrix(0.8124034535947434,-0.5830957284934727,0.5830957284934727,0.8124034535947434,448.0200914122775,-132.2864707030098)" fill="#ffa6d5" filter="url(#bbburst-blur-2)"></use><use xlink:href="#bbburst-shape-8" width="47.97540514045501" opacity="0.21585136318533382" transform="matrix(0.7545345666903729,0.6562603048100435,-0.6562603048100435,0.7545345666903729,599.4040372800525,-163.20575765708395)" fill="none" stroke="#ffbd9b" filter="url(#bbburst-blur-3)"></use><use xlink:href="#bbburst-shape-10" width="11.507696484377561" opacity="0.8723299522758734" transform="matrix(0.9904235379992814,-0.13806236046434225,0.13806236046434225,0.9904235379992814,667.3341446068372,299.01861555589875)" fill="none" stroke="#2c2891"></use><use xlink:href="#bbburst-shape-10" width="46.65240207894061" opacity="0.15571710364202362" transform="matrix(0.9622565353313501,0.2721440063865197,-0.2721440063865197,0.9622565353313501,142.21757638024513,10.015619420579696)" fill="none" stroke="#ffbd9b" filter="url(#bbburst-blur-3)"></use><use xlink:href="#bbburst-shape-10" width="23.318243827466546" opacity="0.5605602640945935" transform="matrix(0.9569093887556245,0.29038667619458214,-0.29038667619458214,0.9569093887556245,789.173634637794,-10.050340637693694)" fill="none" stroke="#2c2891" filter="url(#bbburst-blur-1)"></use><use xlink:href="#bbburst-shape-6" width="32.17458495549832" opacity="0.23306374724641632" transform="matrix(0.9791164867473338,-0.20330003782478276,0.20330003782478276,0.9791164867473338,-62.24757167351674,359.69684145622375)" fill="#ffbd9b" filter="url(#bbburst-blur-3)"></use><use xlink:href="#bbburst-shape-6" width="20.364201336623022" opacity="0.6478215233901834" transform="matrix(0.806302032217034,-0.5915040429639353,0.5915040429639353,0.806302032217034,373.9095702330958,181.56245013861997)" fill="#2c2891" filter="url(#bbburst-blur-1)"></use><use xlink:href="#bbburst-shape-4" width="27.015334124058448" opacity="0.4449031895640846" transform="matrix(0.8029133180250964,-0.5960958008054833,0.5960958008054833,0.8029133180250964,-3.5827133536777183,457.427304736868)" fill="#2c2891" filter="url(#bbburst-blur-2)"></use><use xlink:href="#bbburst-shape-10" width="9.034316362189033" opacity="0.8754039252179184" transform="matrix(0.8940481457965552,0.4479708840959884,-0.4479708840959884,0.8940481457965552,962.7996003623302,316.3747087431053)" fill="none" stroke="#2c2891"></use><use xlink:href="#bbburst-shape-10" width="16.738092595165202" opacity="0.7500792719086347" transform="matrix(0.9160307644208857,0.4011080136752292,-0.4011080136752292,0.9160307644208857,735.2964093371518,307.0942616880907)" fill="none" stroke="#ffbd9b"></use><use xlink:href="#bbburst-shape-6" width="35.2010994319723" opacity="0.23702773702763424" transform="matrix(0.9999026003605501,-0.013956711368009151,0.013956711368009151,0.9999026003605501,208.44719461904393,-108.71475188929838)" fill="#ff5c58" filter="url(#bbburst-blur-3)"></use><use xlink:href="#bbburst-shape-8" width="38.933138240319906" opacity="0.19897813278555754" transform="matrix(0.9922674804703167,-0.12411787623501194,0.12411787623501194,0.9922674804703167,-29.614076061401853,154.4190519207603)" fill="none" stroke="#ffa6d5" filter="url(#bbburst-blur-3)"></use><use xlink:href="#bbburst-shape-6" width="17.119312890174744" opacity="0.7804617542342984" transform="matrix(0.9681125575932465,-0.25051561993269583,0.25051561993269583,0.9681125575932465,472.7103730132138,396.8707044664456)" fill="#ff5c58"></use><use xlink:href="#bbburst-shape-10" width="19.11561910928655" opacity="0.7423921827354703" transform="matrix(0.9923662102428746,0.12332601010409264,-0.12332601010409264,0.9923662102428746,583.0119587749103,381.91769963236675)" fill="none" stroke="#ffa6d5"></use><use xlink:href="#bbburst-shape-4" width="25.173470596644314" opacity="0.6251782092936607" transform="matrix(0.8487907868228757,-0.5287288531985025,0.5287288531985025,0.8487907868228757,319.9917364165607,195.11544535599285)" fill="#ffbd9b" filter="url(#bbburst-blur-1)"></use><use xlink:href="#bbburst-shape-1" width="6.731989028019892" opacity="0.978668741954768" transform="matrix(0.9705159320994019,-0.24103697961356288,0.24103697961356288,0.9705159320994019,681.7167070979124,402.17690458882686)" fill="#00a19d"></use><use xlink:href="#bbburst-shape-6" width="42.40571395932346" opacity="0.2649569893038185" transform="matrix(0.9648420204551366,0.262830507293293,-0.262830507293293,0.9648420204551366,278.6172967710795,-7.420972655509161)" fill="#ffa6d5" filter="url(#bbburst-blur-2)"></use><use xlink:href="#bbburst-shape-6" width="10.952201388084895" opacity="0.8090840955216065" transform="matrix(0.76268443267053,0.6467707910550938,-0.6467707910550938,0.76268443267053,956.0188777773087,327.8482849157849)" fill="#2c2891"></use><use xlink:href="#bbburst-shape-1" width="9.756060726197841" opacity="0.8531395699449957" transform="matrix(0.9998859019666645,0.015105728989685584,-0.015105728989685584,0.9998859019666645,742.4860512876811,265.35610846824756)" fill="#2c2891"></use><use xlink:href="#bbburst-shape-4" width="22.000400350521208" opacity="0.6999090143170648" transform="matrix(0.9549843686965911,-0.296656123390658,0.296656123390658,0.9549843686965911,535.4816770012148,153.45816282026402)" fill="#2c2891"></use><use xlink:href="#bbburst-shape-4" width="25.217673750529613" opacity="0.6593928750260356" transform="matrix(0.909245625388586,0.4162600061400557,-0.4162600061400557,0.909245625388586,831.3356174642058,113.72097791022554)" fill="#ffa6d5"></use><use xlink:href="#bbburst-shape-4" width="17.00162016808818" opacity="0.64440985077147" transform="matrix(0.7663741314926567,-0.6423944976250001,0.6423944976250001,0.7663741314926567,459.281055569432,151.82677403936225)" fill="#2c2891" filter="url(#bbburst-blur-1)"></use><use xlink:href="#bbburst-shape-10" width="13.051200687042469" opacity="0.8132706575554175" transform="matrix(0.9829589267254146,-0.18382532026579196,0.18382532026579196,0.9829589267254146,534.1657603272732,390.32811863105206)" fill="none" stroke="#2c2891"></use><use xlink:href="#bbburst-shape-10" width="9.624049867617813" opacity="0.8817560257188163" transform="matrix(0.9968951558659991,0.07874038487907807,-0.07874038487907807,0.9968951558659991,784.9388673598874,290.2387948322076)" fill="none" stroke="#2c2891"></use><use xlink:href="#bbburst-shape-6" width="29.359998921728153" opacity="0.3758254907601807" transform="matrix(0.745634652689679,0.6663549840050286,-0.6663549840050286,0.745634652689679,867.1320341020655,-103.07789202435708)" fill="#00a19d" filter="url(#bbburst-blur-2)"></use><use xlink:href="#bbburst-shape-4" width="14.567710371630495" opacity="0.7945093517850578" transform="matrix(0.999884328550902,0.01520952064700646,-0.01520952064700646,0.999884328550902,600.0199862447624,347.8652881120367)" fill="#ffa6d5"></use><use xlink:href="#bbburst-shape-6" width="38.84728635122232" opacity="0.4220415360747348" transform="matrix(0.8268340129406139,0.5624460107819422,-0.5624460107819422,0.8268340129406139,534.0343101525656,128.91606824090684)" fill="#ffbd9b" filter="url(#bbburst-blur-2)"></use><use xlink:href="#bbburst-shape-8" width="28.691319004249735" opacity="0.4543478136782323" transform="matrix(0.8262906996394708,0.5632438900594607,-0.5632438900594607,0.8262906996394708,904.6730502258724,-73.29743178738863)" fill="none" stroke="#2c2891" filter="url(#bbburst-blur-1)"></use><use xlink:href="#bbburst-shape-4" width="24.11601602642422" opacity="0.5719790070416771" transform="matrix(0.9847593824080662,-0.1739222779269066,0.1739222779269066,0.9847593824080662,321.4746444522675,248.45049570199893)" fill="#2c2891" filter="url(#bbburst-blur-1)"></use><use xlink:href="#bbburst-shape-1" width="35.745800155270935" opacity="0.36893482337461925" transform="matrix(0.7959342548099365,-0.6053830704769924,0.6053830704769924,0.7959342548099365,-45.48232510956217,266.28050276547987)" fill="#ffa6d5" filter="url(#bbburst-blur-2)"></use><use xlink:href="#bbburst-shape-6" width="7.340063207748745" opacity="0.9590924333458604" transform="matrix(0.9849043278042441,0.17309958137577977,-0.17309958137577977,0.9849043278042441,855.4892448792675,365.771111385165)" fill="#ffa6d5"></use><use xlink:href="#bbburst-shape-8" width="30.00741501747017" opacity="0.46258801588190357" transform="matrix(0.8313328991624493,0.555774784215834,-0.555774784215834,0.8313328991624493,752.8294361826268,-12.845176717279628)" fill="none" stroke="#ffbd9b" filter="url(#bbburst-blur-1)"></use><use xlink:href="#bbburst-shape-6" width="16.148010328468814" opacity="0.5331873383514099" transform="matrix(0.8558272117490578,-0.5172618134270432,0.5172618134270432,0.8558272117490578,562.1338765172798,-4.34700271127582)" fill="#ff5c58" filter="url(#bbburst-blur-1)"></use><use xlink:href="#bbburst-shape-6" width="9.348612969552459" opacity="0.9229032873928956" transform="matrix(0.9969412023786414,0.07815522375266276,-0.07815522375266276,0.9969412023786414,773.5330253282622,344.9335406104755)" fill="#ff5c58"></use><use xlink:href="#bbburst-shape-10" width="14.866414669892576" opacity="0.7592847683007209" transform="matrix(0.9919062782240237,0.12697218285815903,-0.12697218285815903,0.9919062782240237,787.8643022031629,168.07615229990085)" fill="none" stroke="#ffa6d5"></use><use xlink:href="#bbburst-shape-6" width="22.08777799933923" opacity="0.5998579053759372" transform="matrix(0.7154403072631479,-0.6986738629312051,0.6986738629312051,0.7154403072631479,443.14803731342533,127.47663889090018)" fill="#2c2891" filter="url(#bbburst-blur-1)"></use><use xlink:href="#bbburst-shape-6" width="14.16821761897902" opacity="0.6654972222552233" transform="matrix(0.7738155959666174,-0.633410943573624,0.633410943573624,0.7738155959666174,510.51033078118206,161.86483957125205)" fill="#00a19d"></use><use xlink:href="#bbburst-shape-4" width="11.689997802762282" opacity="0.8221568055501615" transform="matrix(0.9928385844109242,0.11946357312968682,-0.11946357312968682,0.9928385844109242,776.3118010407724,236.90203427085447)" fill="#ffa6d5"></use><use xlink:href="#bbburst-shape-4" width="7.1669100340733" opacity="0.9629594052730451" transform="matrix(0.8696739205469083,0.493626652360435,-0.493626652360435,0.8696739205469083,969.3085429006044,423.05634987888936)" fill="#ffbd9b"></use><use xlink:href="#bbburst-shape-8" width="29.05015888239997" opacity="0.3796939148886953" transform="matrix(0.9761786165151174,0.21696845083705468,-0.21696845083705468,0.9761786165151174,253.88881369547502,362.03914393338033)" fill="none" stroke="#ffa6d5" filter="url(#bbburst-blur-2)"></use><use xlink:href="#bbburst-shape-6" width="26.476309381837346" opacity="0.503251534886999" transform="matrix(0.9543984872830533,-0.2985356385288355,0.2985356385288355,0.9543984872830533,172.1716113147509,391.1852361595588)" fill="#ffbd9b" filter="url(#bbburst-blur-1)"></use><use xlink:href="#bbburst-shape-8" width="13.388573971971653" opacity="0.6854545712608269" transform="matrix(0.7436203736189275,-0.6686020789220196,0.6686020789220196,0.7436203736189275,461.83445055135024,199.43021227100508)" fill="none" stroke="#ff5c58"></use><use xlink:href="#bbburst-shape-4" width="33.704001061081215" opacity="0.4737428193392562" transform="matrix(0.8938249467587188,0.44841606187978306,-0.44841606187978306,0.8938249467587188,603.2237973905467,52.08574033591242)" fill="#00a19d" filter="url(#bbburst-blur-1)"></use><use xlink:href="#bbburst-shape-10" width="8.302694074295234" opacity="0.9152914452020374" transform="matrix(0.9873954236358047,0.1582727941974549,-0.1582727941974549,0.9873954236358047,850.7905785028204,320.09569412254035)" fill="none" stroke="#ffa6d5"></use><use xlink:href="#bbburst-shape-8" width="11.076174613580577" opacity="0.8489666302578053" transform="matrix(0.8564372943903379,0.5162510637057881,-0.5162510637057881,0.8564372943903379,990.3599555058112,303.9633191794163)" fill="none" stroke="#ffa6d5"></use><use xlink:href="#bbburst-shape-6" width="23.727561963543423" opacity="0.6110543280183063" transform="matrix(0.9831273097944072,0.18292264139906717,-0.18292264139906717,0.9831273097944072,474.0252470133919,370.846678510736)" fill="#2c2891" filter="url(#bbburst-blur-1)"></use><use xlink:href="#bbburst-shape-6" width="24.240136157028495" opacity="0.5586167324369732" transform="matrix(0.9261273901151617,-0.3772108923115546,0.3772108923115546,0.9261273901151617,197.5328541403789,404.05683397922013)" fill="#2c2891" filter="url(#bbburst-blur-1)"></use><use xlink:href="#bbburst-shape-8" width="27.559056078269204" opacity="0.45416120578877583" transform="matrix(0.9881313367110298,-0.15361139739509352,0.15361139739509352,0.9881313367110298,231.107426518309,174.3347306822697)" fill="none" stroke="#2c2891" filter="url(#bbburst-blur-1)"></use><use xlink:href="#bbburst-shape-1" width="14.310400002060593" opacity="0.8421633123976165" transform="matrix(0.9637594102274816,0.26677293565498145,-0.26677293565498145,0.9637594102274816,813.460828726713,280.48205149904845)" fill="#00a19d"></use><use xlink:href="#bbburst-shape-6" width="24.24689324933348" opacity="0.5219187367993461" transform="matrix(0.92512026884833,-0.3796741868576183,0.3796741868576183,0.92512026884833,372.0770243287377,36.53165132798415)" fill="#ffa6d5" filter="url(#bbburst-blur-1)"></use><use xlink:href="#bbburst-shape-4" width="10.35486234949655" opacity="0.8896822702841941" transform="matrix(0.9610643839262255,0.276324537362328,-0.276324537362328,0.9610643839262255,827.6024502628475,336.0887214308167)" fill="#00a19d"></use><use xlink:href="#bbburst-shape-10" width="48.082966428115185" opacity="0.3043268420316698" transform="matrix(0.742401545456691,0.6699551815633018,-0.6699551815633018,0.742401545456691,603.1688082703622,-46.15607810933926)" fill="none" stroke="#ff5c58" filter="url(#bbburst-blur-2)"></use><use xlink:href="#bbburst-shape-4" width="12.881427477026687" opacity="0.7987288689293334" transform="matrix(0.9226812348836958,0.38556366373596224,-0.38556366373596224,0.9226812348836958,770.8542559498102,333.4244529284765)" fill="#ffa6d5"></use><use xlink:href="#bbburst-shape-4" width="6.740712279627508" opacity="0.9456896910035619" transform="matrix(0.9489366289313379,0.3154667562080485,-0.3154667562080485,0.9489366289313379,881.3515226354801,384.49475293125533)" fill="#2c2891"></use><use xlink:href="#bbburst-shape-4" width="38.26074069127709" opacity="0.24906161809413496" transform="matrix(0.9880882201146068,0.15388849622615822,-0.15388849622615822,0.9880882201146068,104.82785322086411,262.10319295788344)" fill="#00a19d" filter="url(#bbburst-blur-3)"></use><use xlink:href="#bbburst-shape-4" width="24.080586579288532" opacity="0.5149925148644723" transform="matrix(0.9853265119273827,0.17068000730319094,-0.17068000730319094,0.9853265119273827,397.19983779389236,247.74861103557816)" fill="#2c2891" filter="url(#bbburst-blur-1)"></use><use xlink:href="#bbburst-shape-8" width="61.6258654399533" opacity="-0.018700139470962496" transform="matrix(0.9326109596704532,0.36088335775227487,-0.36088335775227487,0.9326109596704532,190.91220292522334,-300.09243704350945)" fill="none" stroke="#2c2891" filter="url(#bbburst-blur-3)"></use><use xlink:href="#bbburst-shape-8" width="23.056258379356855" opacity="0.7180755923470836" transform="matrix(0.9000157656199035,0.4358573409220257,-0.4358573409220257,0.9000157656199035,737.3188658587263,267.3033134505248)" fill="none" stroke="#ffa6d5"></use><use xlink:href="#bbburst-shape-4" width="41.100022290179275" opacity="0.2935813198221109" transform="matrix(0.9430994073416346,-0.33251091391390086,0.33251091391390086,0.9430994073416346,481.01864213389524,-256.8617426236768)" fill="#ff5c58" filter="url(#bbburst-blur-2)"></use><use xlink:href="#bbburst-shape-4" width="8.739562304935449" opacity="0.891817290345187" transform="matrix(0.8285046739584336,-0.559982147241347,0.559982147241347,0.8285046739584336,480.97357323435097,413.20434252564496)" fill="#ffa6d5"></use><use xlink:href="#bbburst-shape-10" width="20.58131672287041" opacity="0.620015195291513" transform="matrix(0.9828185427426621,-0.18457440787170382,0.18457440787170382,0.9828185427426621,349.6564317430442,308.07679655925983)" fill="none" stroke="#ffa6d5" filter="url(#bbburst-blur-1)"></use><use xlink:href="#bbburst-shape-8" width="11.256514060062212" opacity="0.8542197210508169" transform="matrix(0.7507789345954199,-0.6605535492053359,0.6605535492053359,0.7507789345954199,391.692974132319,462.2836814072018)" fill="none" stroke="#ffbd9b"></use><use xlink:href="#bbburst-shape-4" width="46.56379155434995" opacity="0.15692858407285992" transform="matrix(0.9101354455261271,-0.41431083837736854,0.41431083837736854,0.9101354455261271,224.35868361973164,-302.46527544063866)" fill="#ff5c58" filter="url(#bbburst-blur-3)"></use><use xlink:href="#bbburst-shape-8" width="15.987167501795412" opacity="0.75508012959929" transform="matrix(0.9354884459696774,-0.3533572801814588,0.3533572801814588,0.9354884459696774,412.6787859362971,372.92184840742914)" fill="none" stroke="#ffbd9b"></use><use xlink:href="#bbburst-shape-6" width="11.865905128468698" opacity="0.7010292967421647" transform="matrix(0.9998951684809203,-0.01447936630215231,0.01447936630215231,0.9998951684809203,769.2470694466347,101.76344472948881)" fill="#00a19d"></use><use xlink:href="#bbburst-shape-10" width="30.50349962631598" opacity="0.4318450456759664" transform="matrix(0.8728272671674311,-0.48802926314826023,0.48802926314826023,0.8728272671674311,31.46995440091331,362.43167811479157)" fill="none" stroke="#2c2891" filter="url(#bbburst-blur-2)"></use><use xlink:href="#bbburst-shape-8" width="15.211500043055974" opacity="0.7674693071248866" transform="matrix(0.8973939985179455,-0.4412301116469427,0.4412301116469427,0.8973939985179455,400.2117263951038,359.48136458271205)" fill="none" stroke="#ffa6d5"></use><use xlink:href="#bbburst-shape-10" width="31.378408479350455" opacity="0.31008363765074154" transform="matrix(0.895497173672109,-0.44506719935900096,0.44506719935900096,0.895497173672109,-80.50507957820945,403.49924681511374)" fill="none" stroke="#00a19d" filter="url(#bbburst-blur-2)"></use><use xlink:href="#bbburst-shape-10" width="18.652202156020266" opacity="0.4859227645176304" transform="matrix(0.9550354232932587,-0.2964917203819798,0.2964917203819798,0.9550354232932587,638.310066797224,-92.18832131727277)" fill="none" stroke="#2c2891" filter="url(#bbburst-blur-1)"></use><use xlink:href="#bbburst-shape-6" width="24.074821370961473" opacity="0.5281444661671763" transform="matrix(0.8923278295016164,0.45138790933844714,-0.45138790933844714,0.8923278295016164,890.1377754624702,-27.444402698449437)" fill="#ff5c58" filter="url(#bbburst-blur-1)"></use><use xlink:href="#bbburst-shape-10" width="15.655455725064314" opacity="0.7207691474219416" transform="matrix(0.9629647501661074,-0.2696273167494837,0.2696273167494837,0.9629647501661074,427.6575349765586,307.63300137885125)" fill="none" stroke="#00a19d"></use><use xlink:href="#bbburst-shape-10" width="11.8010127705525" opacity="0.841065998117196" transform="matrix(0.8596154895026887,0.5109414939178974,-0.5109414939178974,0.8596154895026887,858.584892077627,379.2605349792727)" fill="none" stroke="#ffbd9b"></use><use xlink:href="#bbburst-shape-6" width="20.993638311546782" opacity="0.6654344919413575" transform="matrix(0.9773575416735886,-0.21159450780622732,0.21159450780622732,0.9773575416735886,377.1179748823373,345.24930093815954)" fill="#ffa6d5"></use><use xlink:href="#bbburst-shape-4" width="10.839051599189041" opacity="0.7695987350436779" transform="matrix(0.8050301716364447,-0.5932338685164531,0.5932338685164531,0.8050301716364447,541.8179293578564,251.40349614598762)" fill="#ffbd9b"></use><use xlink:href="#bbburst-shape-6" width="9.328141534512163" opacity="0.8645542199810079" transform="matrix(0.963230692045896,0.26867570396443446,-0.26867570396443446,0.963230692045896,791.7904444225562,336.10511702542755)" fill="#ffbd9b"></use><use xlink:href="#bbburst-shape-6" width="13.231116738059844" opacity="0.8231913220500584" transform="matrix(0.798853485610537,0.6015256507646997,-0.6015256507646997,0.798853485610537,867.5231883912045,420.7679452140557)" fill="#ff5c58"></use><use xlink:href="#bbburst-shape-4" width="45.05378585119107" opacity="0.3518836024978451" transform="matrix(0.9604004071076246,-0.27862350587757095,0.27862350587757095,0.9604004071076246,33.299309419401,285.8812965362379)" fill="#ffa6d5" filter="url(#bbburst-blur-2)"></use><use xlink:href="#bbburst-shape-10" width="11.005911952557154" opacity="0.7764703517463545" transform="matrix(0.8797782959638945,-0.47538421298026523,0.47538421298026523,0.8797782959638945,502.53647279907335,252.04489470361108)" fill="none" stroke="#00a19d"></use><use xlink:href="#bbburst-shape-1" width="25.635886664190703" opacity="0.6070689919230413" transform="matrix(0.9740928874119182,-0.22614828474589863,0.22614828474589863,0.9740928874119182,568.2631521486848,42.0720677612789)" fill="#ffbd9b" filter="url(#bbburst-blur-1)"></use><use xlink:href="#bbburst-shape-6" width="21.43362106789638" opacity="0.6564777455873153" transform="matrix(0.8492299303821855,0.5280232242459306,-0.5280232242459306,0.8492299303821855,659.3098867062486,432.3582328245062)" fill="#2c2891"></use><use xlink:href="#bbburst-shape-10" width="7.3011841898320835" opacity="0.9289969982565983" transform="matrix(0.9615733289924363,0.2745482343239596,-0.2745482343239596,0.9615733289924363,889.6658212495854,345.34354466502504)" fill="none" stroke="#00a19d"></use><use xlink:href="#bbburst-shape-8" width="7.798084273788949" opacity="0.9060292457323345" transform="matrix(0.7378056142768054,-0.6750132410120752,0.6750132410120752,0.7378056142768054,438.87692714726984,475.1983438957864)" fill="none" stroke="#ffbd9b"></use><use xlink:href="#bbburst-shape-6" width="26.222186998690994" opacity="0.5955624907230108" transform="matrix(0.9995980740947107,-0.028349431495979485,0.028349431495979485,0.9995980740947107,589.3464145371146,41.51146702904208)" fill="#00a19d" filter="url(#bbburst-blur-1)"></use><use xlink:href="#bbburst-shape-8" width="15.133314984641636" opacity="0.8194973478083354" transform="matrix(0.9636616528108467,-0.26712584843452936,0.26712584843452936,0.9636616528108467,566.6642603707642,281.0056111127291)" fill="none" stroke="#ffa6d5"></use><use xlink:href="#bbburst-shape-1" width="15.321465134305782" opacity="0.620743290342608" transform="matrix(0.9418917926106036,-0.33591643456786036,0.33591643456786036,0.9418917926106036,633.2428224283494,47.41546312775)" fill="#00a19d" filter="url(#bbburst-blur-1)"></use><use xlink:href="#bbburst-shape-6" width="30.290019284242682" opacity="0.4392516267630837" transform="matrix(0.867904678671458,-0.4967307809469766,0.4967307809469766,0.867904678671458,51.182954050423945,298.8352521213473)" fill="#ffa6d5" filter="url(#bbburst-blur-2)"></use><use xlink:href="#bbburst-shape-6" width="10.59269813962881" opacity="0.9062447767081879" transform="matrix(0.904002822258631,0.42752648730626025,-0.42752648730626025,0.904002822258631,935.5333197048063,347.5445374953827)" fill="#00a19d"></use><use xlink:href="#bbburst-shape-10" width="50.39288357772134" opacity="0.13880127566678513" transform="matrix(0.9905004141098221,0.13750974383028594,-0.13750974383028594,0.9905004141098221,233.1414314562984,-220.4444473590754)" fill="none" stroke="#2c2891" filter="url(#bbburst-blur-3)"></use><use xlink:href="#bbburst-shape-6" width="13.129997355319071" opacity="0.853204716029666" transform="matrix(0.7459240478640827,0.6660310164084414,-0.6660310164084414,0.7459240478640827,957.6319238985739,393.54157590020804)" fill="#2c2891"></use><use xlink:href="#bbburst-shape-4" width="38.138663944899925" opacity="0.281933685402998" transform="matrix(0.7505214474513171,0.660846091700314,-0.660846091700314,0.7505214474513171,755.8933028942952,-167.85582479738153)" fill="#ffa6d5" filter="url(#bbburst-blur-2)"></use><use xlink:href="#bbburst-shape-8" width="35.53187238357515" opacity="0.20772944140304272" transform="matrix(0.7331634267777364,0.6800524903531541,-0.6800524903531541,0.7331634267777364,819.2169993796724,-260.46226301910804)" fill="none" stroke="#ffa6d5" filter="url(#bbburst-blur-3)"></use><use xlink:href="#bbburst-shape-1" width="28.26394179977915" opacity="0.6463000622674036" transform="matrix(0.9999994496599585,0.001049132870571039,-0.001049132870571039,0.9999994496599585,501.80517279082744,189.84723778946739)" fill="#2c2891" filter="url(#bbburst-blur-1)"></use><use xlink:href="#bbburst-shape-6" width="19.394704987637194" opacity="0.6840904665272844" transform="matrix(0.9471991522088712,-0.3206458576916216,0.3206458576916216,0.9471991522088712,433.56697994385473,206.60027786930027)" fill="#ffbd9b"></use><use xlink:href="#bbburst-shape-4" width="5.035691468641744" opacity="0.9683529174809173" transform="matrix(0.9653084380575513,0.26111227358148204,-0.26111227358148204,0.9653084380575513,871.1662439942246,406.1523578126594)" fill="#00a19d"></use><use xlink:href="#bbburst-shape-4" width="9.482032174734528" opacity="0.9324865147179441" transform="matrix(0.915125357135567,-0.4031694193853262,0.4031694193853262,0.915125357135567,573.597351726065,406.5184390660626)" fill="#00a19d"></use><use xlink:href="#bbburst-shape-10" width="7.544965122177677" opacity="0.9429308873487037" transform="matrix(0.9993146605842504,0.03701633614209232,-0.03701633614209232,0.9993146605842504,754.5847940715188,391.7635144250939)" fill="none" stroke="#2c2891"></use><use xlink:href="#bbburst-shape-6" width="27.565494803159396" opacity="0.5504657080266799" transform="matrix(0.8836744998169515,0.46810188888025295,-0.46810188888025295,0.8836744998169515,663.4378156362463,116.08495029610515)" fill="#ff5c58" filter="url(#bbburst-blur-1)"></use><use xlink:href="#bbburst-shape-10" width="11.028137588039488" opacity="0.8191392967075383" transform="matrix(0.9880922385908113,-0.15386269215309867,0.15386269215309867,0.9880922385908113,720.6226812452887,225.1752780521536)" fill="none" stroke="#ffbd9b"></use><use xlink:href="#bbburst-shape-10" width="8.17219112733562" opacity="0.8953500515017817" transform="matrix(0.757812280987323,0.6524726406408092,-0.6524726406408092,0.757812280987323,1044.4767277715962,390.4225732120555)" fill="none" stroke="#2c2891"></use><use xlink:href="#bbburst-shape-6" width="38.74329550863463" opacity="0.34839025074499186" transform="matrix(0.7949102583409895,0.6067270236146246,-0.6067270236146246,0.7949102583409895,694.9564417892989,-90.20654828383385)" fill="#ffbd9b" filter="url(#bbburst-blur-2)"></use><use xlink:href="#bbburst-shape-4" width="14.639708217891787" opacity="0.7722004216384877" transform="matrix(0.8500889834186489,-0.526639079702834,0.526639079702834,0.8500889834186489,446.7009548016275,281.4023365629775)" fill="#ffa6d5"></use><use xlink:href="#bbburst-shape-8" width="24.64341352017986" opacity="0.5898281436247503" transform="matrix(0.9851345790283427,0.17178434504532178,-0.17178434504532178,0.9851345790283427,502.8986350320363,196.09448097631167)" fill="none" stroke="#2c2891" filter="url(#bbburst-blur-1)"></use><use xlink:href="#bbburst-shape-4" width="63.00005475735875" opacity="0.0920971366357275" transform="matrix(0.8276425744140448,0.5612555291641165,-0.5612555291641165,0.8276425744140448,271.2833643377776,-92.37130515140194)" fill="#ffbd9b" filter="url(#bbburst-blur-3)"></use><use xlink:href="#bbburst-shape-4" width="28.21802621635414" opacity="0.4325380012259952" transform="matrix(0.8443569572458889,0.5357810455311611,-0.5357810455311611,0.8443569572458889,964.0389461006453,-111.44537160440927)" fill="#ffa6d5" filter="url(#bbburst-blur-2)"></use><use xlink:href="#bbburst-shape-8" width="3.7134642222229495" opacity="0.9915386759323122" transform="matrix(0.9271144472903856,0.37477833665440546,-0.37477833665440546,0.9271144472903856,940.78484592716,424.36462168179366)" fill="none" stroke="#2c2891"></use><use xlink:href="#bbburst-shape-8" width="7.846886139325232" opacity="0.921638970879256" transform="matrix(0.8137798303200114,-0.5811732854874985,0.5811732854874985,0.8137798303200114,525.9170308000773,408.47265921562104)" fill="none" stroke="#00a19d"></use><use xlink:href="#bbburst-shape-8" width="25.63354133560046" opacity="0.5795834885701279" transform="matrix(0.9455165480638518,-0.32557404278814656,0.32557404278814656,0.9455165480638518,327.38510136452777,165.8241784834637)" fill="none" stroke="#ffa6d5" filter="url(#bbburst-blur-1)"></use><use xlink:href="#bbburst-shape-6" width="30.687983214665962" opacity="0.5880399659509524" transform="matrix(0.9217616057728142,0.3877570658584098,-0.3877570658584098,0.9217616057728142,697.6287473352253,92.92846272307077)" fill="#ff5c58" filter="url(#bbburst-blur-1)"></use><use xlink:href="#bbburst-shape-1" width="21.155173725152736" opacity="0.6329702779930388" transform="matrix(0.999507301139435,-0.031387178416718335,0.031387178416718335,0.999507301139435,444.711281560579,244.4185319996118)" fill="#00a19d" filter="url(#bbburst-blur-1)"></use><use xlink:href="#bbburst-shape-1" width="12.326279354432755" opacity="0.7470536948835118" transform="matrix(0.8966396258793042,-0.44276108828918254,0.44276108828918254,0.8966396258793042,519.6280320777303,210.79108391439365)" fill="#ffbd9b"></use><use xlink:href="#bbburst-shape-6" width="19.697518513285925" opacity="0.7019561923416495" transform="matrix(0.9780640039838642,0.20830459455098846,-0.20830459455098846,0.9780640039838642,576.5424387610263,383.61502104842157)" fill="#ff5c58"></use><use xlink:href="#bbburst-shape-8" width="26.82885306350006" opacity="0.414343986527857" transform="matrix(0.8669025009859591,0.49847773649812,-0.49847773649812,0.8669025009859591,758.1822220579174,-92.22981718558736)" fill="none" stroke="#ffbd9b" filter="url(#bbburst-blur-2)"></use><use xlink:href="#bbburst-shape-1" width="6.837087527309425" opacity="0.9139373281100415" transform="matrix(0.7590071830547366,-0.6510822498512101,0.6510822498512101,0.7590071830547366,466.3657427380746,449.4292441036688)" fill="#ffbd9b"></use><use xlink:href="#bbburst-shape-4" width="42.71626359600409" opacity="0.37045463940208945" transform="matrix(0.9929618209709615,-0.11843488546045954,0.11843488546045954,0.9929618209709615,265.4224391682506,-17.902714406285952)" fill="#ffbd9b" filter="url(#bbburst-blur-2)"></use><use xlink:href="#bbburst-shape-6" width="23.615408038705976" opacity="0.4883431673902159" transform="matrix(0.7364411895354809,0.6765015701057655,-0.6765015701057655,0.7364411895354809,905.6605809109436,10.218724732651594)" fill="#ffa6d5" filter="url(#bbburst-blur-1)"></use><use xlink:href="#bbburst-shape-1" width="12.850807553830712" opacity="0.7251527621621936" transform="matrix(0.860843586113951,-0.5088696495631004,0.5088696495631004,0.860843586113951,541.5190008706003,188.5770825362241)" fill="#ffbd9b"></use><use xlink:href="#bbburst-shape-10" width="4.5972937685621975" opacity="0.9846716260358324" transform="matrix(0.8357874974396394,0.5490530567473281,-0.5490530567473281,0.8357874974396394,1011.9181670864392,450.22683383035667)" fill="none" stroke="#00a19d"></use><use xlink:href="#bbburst-shape-10" width="18.12155685759207" opacity="0.577284952291476" transform="matrix(0.9998735534235719,-0.015902111938971238,0.015902111938971238,0.9998735534235719,757.0624678437789,-21.62380880833581)" fill="none" stroke="#2c2891" filter="url(#bbburst-blur-1)"></use><use xlink:href="#bbburst-shape-10" width="25.61645853346233" opacity="0.36828533767028826" transform="matrix(0.7316309196069439,-0.6817009589806204,0.6817009589806204,0.7316309196069439,484.89611151007557,-114.77035191602198)" fill="none" stroke="#ffa6d5" filter="url(#bbburst-blur-2)"></use><use xlink:href="#bbburst-shape-8" width="23.542896256422985" opacity="0.2946437465727251" transform="matrix(0.812144237605378,-0.5834567141822771,0.5834567141822771,0.812144237605378,510.05507912052417,-221.77805834664616)" fill="none" stroke="#ffbd9b" filter="url(#bbburst-blur-2)"></use><use xlink:href="#bbburst-shape-8" width="31.273425755308175" opacity="0.5034516476781766" transform="matrix(0.9721909877537234,0.23418941763119794,-0.23418941763119794,0.9721909877537234,390.6948415848336,314.5539134433431)" fill="none" stroke="#ff5c58" filter="url(#bbburst-blur-1)"></use><use xlink:href="#bbburst-shape-6" width="14.547213429995086" opacity="0.7684888207931684" transform="matrix(0.9383768243142739,-0.34561385329563715,0.34561385329563715,0.9383768243142739,471.1444886042458,286.37753086907776)" fill="#2c2891"></use><use xlink:href="#bbburst-shape-4" width="16.820673745109328" opacity="0.7920891063970897" transform="matrix(0.9515101768497947,-0.3076172676415817,0.3076172676415817,0.9515101768497947,606.6437727018548,223.6438607245854)" fill="#2c2891"></use><use xlink:href="#bbburst-shape-10" width="18.575339077574164" opacity="0.7286078131960338" transform="matrix(0.9791088564071537,0.20333678296136104,-0.20333678296136104,0.9791088564071537,722.5941710011459,180.06228747962973)" fill="none" stroke="#ffbd9b"></use><use xlink:href="#bbburst-shape-4" width="18.481423062397575" opacity="0.7113638544246499" transform="matrix(0.9482319608483994,0.31757857047603094,-0.31757857047603094,0.9482319608483994,828.4432867693545,143.48368633245553)" fill="#ffbd9b"></use></svg>