<svg xmlns="http://www.w3.org/2000/svg" version="1.1" xmlns:xlink="http://www.w3.org/1999/xlink" xmlns:svgjs="http://svgjs.dev/svgjs" viewBox="0 0 800 800" opacity="0.3"><defs><filter id="bbburst-blur-1" x="-100%" y="-100%" width="400%" height="400%"><feGaussianBlur in="SourceGraphic" stdDeviation="1"></feGaussianBlur></filter><filter id="bbburst-blur-2" x="-100%" y="-100%" width="400%" height="400%"><feGaussianBlur in="SourceGraphic" stdDeviation="2"></feGaussianBlur></filter><filter id="bbburst-blur-3" x="-100%" y="-100%" width="400%" height="400%"><feGaussianBlur in="SourceGraphic" stdDeviation="4"></feGaussianBlur></filter><filter id="bbburst-blur-4" x="-100%" y="-100%" width="400%" height="400%"><feGaussianBlur in="SourceGraphic" stdDeviation="12"></feGaussianBlur></filter><symbol id="bbburst-shape-1" viewBox="0 0 194 167"><path d="m97 0 96.129 166.5H.871L97 0Z"></path></symbol><symbol id="bbburst-shape-4" viewBox="0 0 149 143"><path d="M71.647 2.781c.898-2.764 4.808-2.764 5.706 0l15.445 47.534a3 3 0 0 0 2.853 2.073h49.98c2.906 0 4.115 3.719 1.764 5.427L106.96 87.193a2.999 2.999 0 0 0-1.09 3.354l15.445 47.534c.898 2.764-2.266 5.062-4.617 3.354l-40.435-29.378a3 3 0 0 0-3.526 0l-40.435 29.378c-2.351 1.708-5.515-.59-4.617-3.354L43.13 90.547a3 3 0 0 0-1.09-3.354L1.605 57.815c-2.35-1.708-1.142-5.427 1.764-5.427h49.98a3 3 0 0 0 2.853-2.073L71.647 2.781Z"></path></symbol><symbol id="bbburst-shape-6" viewBox="0 0 133 116"><path d="M59.7487 10.2513c-13.6683-13.66839-35.8291-13.66839-49.4974 0-13.66839 13.6683-13.66839 35.8291 0 49.4974l49.4974-49.4974ZM66.5 66.5 41.7513 91.2487 66.5 115.997l24.7487-24.7483L66.5 66.5Zm56.249-6.7513c13.668-13.6683 13.668-35.8291 0-49.4974-13.669-13.66839-35.8294-13.66839-49.4977 0l49.4977 49.4974Zm-112.4977 0 31.5 31.5 49.4974-49.4974-31.5-31.5-49.4974 49.4974Zm80.9974 31.5 31.5003-31.5-49.4977-49.4974-31.5 31.5 49.4974 49.4974Z"></path></symbol><symbol id="bbburst-shape-8" viewBox="0 0 87 168"><path d="m12 12 31.2546 18.0749c16.4102 9.4902 20.014 31.6325 7.4603 45.8369L36.3296 92.1884c-12.5684 14.2206-8.9394 36.3916 7.5068 45.8636L75 156" stroke-width="14" stroke-linecap="round" stroke-linejoin="round"></path></symbol><symbol id="bbburst-shape-10" viewBox="0 0 145 145"><circle cx="72.5" cy="72.5" r="61.5" fill="none" stroke-width="22"></circle></symbol></defs><use xlink:href="#bbburst-shape-8" width="7.759165788184253" opacity="0.810029567240386" transform="matrix(0.9705984115198572,0.24070463966265787,-0.24070463966265787,0.9705984115198572,541.1889883723456,-59.45084790226292)" fill="none" stroke="#ffbd9b"></use><use xlink:href="#bbburst-shape-8" width="22.562159813090084" opacity="0.5777301797446406" transform="matrix(0.9186173732267618,-0.3951482273855776,0.3951482273855776,0.9186173732267618,361.5210866771454,175.65726690192253)" fill="none" stroke="#ffa6d5" filter="url(#bbburst-blur-1)"></use><use xlink:href="#bbburst-shape-4" width="25.030620219373517" opacity="0.44153959919625896" transform="matrix(0.9955688665708678,0.09403526952584049,-0.09403526952584049,0.9955688665708678,580.8374801434516,197.89302023160093)" fill="#2c2891" filter="url(#bbburst-blur-2)"></use><use xlink:href="#bbburst-shape-6" width="8.74069120665391" opacity="0.7766145157538725" transform="matrix(0.9877397636089101,0.15610944681797517,-0.15610944681797517,0.9877397636089101,460.887350790665,104.70750932347539)" fill="#2c2891" filter="url(#bbburst-blur-1)"></use><use xlink:href="#bbburst-shape-4" width="11.911410908978711" opacity="0.7231080854686471" transform="matrix(0.7953428832946581,-0.6061597957573068,0.6061597957573068,0.7953428832946581,152.50899715833708,210.0825758274484)" fill="#ff5c58" filter="url(#bbburst-blur-1)"></use><use xlink:href="#bbburst-shape-8" width="11.128082836726836" opacity="0.7898719787421278" transform="matrix(0.7718105319847011,-0.6358525793904533,0.6358525793904533,0.7718105319847011,56.40568462902195,136.32428464207595)" fill="none" stroke="#ff5c58"></use><use xlink:href="#bbburst-shape-4" width="6.285094100439027" opacity="0.8906394142687959" transform="matrix(0.9567354158217027,0.2909593513061123,-0.2909593513061123,0.9567354158217027,559.1761369101603,-1.607154661380605)" fill="#00a19d"></use><use xlink:href="#bbburst-shape-1" width="8.209924015919801" opacity="0.8190781276619039" transform="matrix(0.8427833840112624,-0.5382528844646586,0.5382528844646586,0.8427833840112624,152.3490029411518,141.21946880303653)" fill="#ff5c58"></use><use xlink:href="#bbburst-shape-6" width="9.262419054236128" opacity="0.8397730595311912" transform="matrix(0.9208466051035389,0.38992503108839666,-0.38992503108839666,0.9208466051035389,530.4130829343668,-39.03091343683752)" fill="#ffbd9b"></use><use xlink:href="#bbburst-shape-10" width="26.949392289491197" opacity="0.01390413958773129" transform="matrix(1.6793792457211052,0.492123306744572,-0.492123306744572,1.6793792457211052,318.6834935677115,84.39659085290327)" fill="none" stroke="#00a19d" filter="url(#bbburst-blur-4)"></use><use xlink:href="#bbburst-shape-8" width="6.840919385263661" opacity="0.942946292722742" transform="matrix(0.8885701311760992,0.45874080043276055,-0.45874080043276055,0.8885701311760992,565.0736818652553,22.44763948344786)" fill="none" stroke="#ffbd9b"></use><use xlink:href="#bbburst-shape-8" width="21.554055248999422" opacity="0.39394511616291505" transform="matrix(0.7358160217190157,0.6771814987000169,-0.6771814987000169,0.7358160217190157,917.8476860054227,195.34048970842895)" fill="none" stroke="#2c2891" filter="url(#bbburst-blur-2)"></use><use xlink:href="#bbburst-shape-6" width="8.757403105689544" opacity="0.8349101487131747" transform="matrix(0.8809185471610878,0.4732679085545506,-0.4732679085545506,0.8809185471610878,641.1293176463474,-3.621567316022322)" fill="#2c2891"></use><use xlink:href="#bbburst-shape-10" width="13.99937158505402" opacity="0.6060823292134421" transform="matrix(0.979414267097891,0.2018605791260415,-0.2018605791260415,0.979414267097891,641.8070271888149,-49.97272297523847)" fill="none" stroke="#2c2891" filter="url(#bbburst-blur-1)"></use><use xlink:href="#bbburst-shape-4" width="19.11657664473465" opacity="0.5778151347079943" transform="matrix(0.9967802880121497,0.08018140327043426,-0.08018140327043426,0.9967802880121497,478.3092738409965,182.15322992891026)" fill="#2c2891" filter="url(#bbburst-blur-1)"></use><use xlink:href="#bbburst-shape-8" width="7.089416310657512" opacity="0.8709542939001242" transform="matrix(0.9637935980259597,0.26664939603189586,-0.26664939603189586,0.9637935980259597,462.7221847643806,55.13331290881871)" fill="none" stroke="#ffbd9b"></use><use xlink:href="#bbburst-shape-10" width="22.779567777961674" opacity="0.17980811276774566" transform="matrix(1.2190080755032404,0.27662124260057436,-0.27662124260057436,1.2190080755032404,847.5362756105364,-205.57423436774286)" fill="none" stroke="#00a19d" filter="url(#bbburst-blur-3)"></use><use xlink:href="#bbburst-shape-10" width="23.044098152070806" opacity="0.4710869303218881" transform="matrix(0.9870107072265313,0.16065448583896597,-0.16065448583896597,0.9870107072265313,440.20986897569725,-234.32825522343333)" fill="none" stroke="#00a19d" filter="url(#bbburst-blur-2)"></use><use xlink:href="#bbburst-shape-1" width="26.61743172965697" opacity="0.2023262747465986" transform="matrix(1.1838639185461997,0.40120596003105075,-0.40120596003105075,1.1838639185461997,849.3161811795993,-268.7503700248353)" fill="#ffa6d5" filter="url(#bbburst-blur-3)"></use><use xlink:href="#bbburst-shape-4" width="7.593921343810737" opacity="0.8936504921523649" transform="matrix(0.9842391922396846,-0.1768423378588207,0.1768423378588207,0.9842391922396846,279.9924143579259,21.71031825939889)" fill="#00a19d"></use><use xlink:href="#bbburst-shape-4" width="16.42696902299901" opacity="0.5394478257094908" transform="matrix(0.8587390617341383,0.5124131378604299,-0.5124131378604299,0.8587390617341383,518.2967832524831,243.6577953937517)" fill="#ff5c58" filter="url(#bbburst-blur-2)"></use><use xlink:href="#bbburst-shape-8" width="4.847891542446694" opacity="0.8990946656072522" transform="matrix(0.9783714423813503,0.20685579695197343,-0.20685579695197343,0.9783714423813503,484.54849495304535,53.36482423362571)" fill="none" stroke="#2c2891"></use><use xlink:href="#bbburst-shape-6" width="17.27590572938526" opacity="0.6474380492075679" transform="matrix(0.992143840968458,-0.12510235340853929,0.12510235340853929,0.992143840968458,249.93881533459873,-125.42084141967973)" fill="#ffbd9b" filter="url(#bbburst-blur-1)"></use><use xlink:href="#bbburst-shape-6" width="14.764463356619009" opacity="0.6070952951011794" transform="matrix(0.7709800567136982,0.6368592875586747,-0.6368592875586747,0.7709800567136982,611.4373784239068,-85.8529898571359)" fill="#00a19d" filter="url(#bbburst-blur-1)"></use><use xlink:href="#bbburst-shape-6" width="9.012945478294606" opacity="0.7633081510089197" transform="matrix(0.8594038616758566,-0.5112973719242307,0.5112973719242307,0.8594038616758566,295.37072030085716,82.58444979231598)" fill="#ffa6d5" filter="url(#bbburst-blur-1)"></use><use xlink:href="#bbburst-shape-1" width="22.90107193346041" opacity="0.45964431419182006" transform="matrix(0.9808680246104053,0.1946738767705654,-0.1946738767705654,0.9808680246104053,705.3014014665911,51.970216749212)" fill="#2c2891" filter="url(#bbburst-blur-2)"></use><use xlink:href="#bbburst-shape-10" width="7.9333808830001455" opacity="0.8017520817127404" transform="matrix(0.8998735885272007,-0.4361508049644965,0.4361508049644965,0.8998735885272007,181.93268035296927,-37.94202567255866)" fill="none" stroke="#ffbd9b"></use><use xlink:href="#bbburst-shape-10" width="15.760584495177056" opacity="0.5570682020139583" transform="matrix(0.8300958969758218,0.5576206612240133,-0.5576206612240133,0.8300958969758218,812.371102687642,26.61630151035655)" fill="none" stroke="#ffa6d5" filter="url(#bbburst-blur-1)"></use><use xlink:href="#bbburst-shape-10" width="27.270654375434844" opacity="0.31352616330464744" transform="matrix(1.1330396016811404,-0.5279405847462789,0.5279405847462789,1.1330396016811404,332.0334851453741,219.03878563203494)" fill="none" stroke="#ffbd9b" filter="url(#bbburst-blur-3)"></use><use xlink:href="#bbburst-shape-4" width="16.874918697253904" opacity="0.6450732127562764" transform="matrix(0.9556608762500591,-0.29446950539057365,0.29446950539057365,0.9556608762500591,143.38101693702086,111.93075807946258)" fill="#00a19d" filter="url(#bbburst-blur-1)"></use><use xlink:href="#bbburst-shape-6" width="24.18754949836843" opacity="0.4022596155147178" transform="matrix(0.9010439800279395,-0.4337277326335154,0.4337277326335154,0.9010439800279395,307.18995764713316,-208.0858274648921)" fill="#2c2891" filter="url(#bbburst-blur-2)"></use><use xlink:href="#bbburst-shape-1" width="9.317307045206302" opacity="0.7592824081597097" transform="matrix(0.9846383664982252,-0.17460609158819937,0.17460609158819937,0.9846383664982252,428.8738388895522,-25.629202947237616)" fill="#2c2891" filter="url(#bbburst-blur-1)"></use><use xlink:href="#bbburst-shape-8" width="9.766717248671597" opacity="0.8153147933722962" transform="matrix(0.8116333084158949,-0.5841672471731608,0.5841672471731608,0.8116333084158949,243.17564901456882,58.7731130462829)" fill="none" stroke="#ffa6d5"></use><use xlink:href="#bbburst-shape-10" width="11.221206967534236" opacity="0.7281090133958605" transform="matrix(0.9710313408201245,0.23895216078761705,-0.23895216078761705,0.9710313408201245,578.584609224352,-74.2873964838484)" fill="none" stroke="#00a19d" filter="url(#bbburst-blur-1)"></use><use xlink:href="#bbburst-shape-10" width="19.03777753769684" opacity="0.4975741826642248" transform="matrix(0.8070147399382566,-0.5905312942786252,0.5905312942786252,0.8070147399382566,359.8545265505587,180.8142422273628)" fill="none" stroke="#ffa6d5" filter="url(#bbburst-blur-2)"></use><use xlink:href="#bbburst-shape-6" width="17.0871487176967" opacity="0.6647120770970474" transform="matrix(0.9162948781328941,-0.40050430248303787,0.40050430248303787,0.9162948781328941,112.1895311795083,-54.84188062414012)" fill="#2c2891" filter="url(#bbburst-blur-1)"></use><use xlink:href="#bbburst-shape-8" width="8.682645213387271" opacity="0.8028762327158455" transform="matrix(0.8009533165232784,-0.5987268031000124,0.5987268031000124,0.8009533165232784,162.27219364090857,-6.332844592985566)" fill="none" stroke="#ffa6d5"></use><use xlink:href="#bbburst-shape-4" width="6.210112300198284" opacity="0.9634175524527052" transform="matrix(0.7424554095115177,0.6698954880330846,-0.6698954880330846,0.7424554095115177,666.6874247687963,84.51262776986266)" fill="#ffa6d5"></use><use xlink:href="#bbburst-shape-1" width="9.630332357340485" opacity="0.8155972205175547" transform="matrix(0.9302582068560802,-0.366905530861706,0.366905530861706,0.9302582068560802,166.22647799453242,21.095306802133905)" fill="#00a19d"></use><use xlink:href="#bbburst-shape-8" width="10.61918868269004" opacity="0.7168556615775741" transform="matrix(0.9608741328250898,0.27698538024168634,-0.27698538024168634,0.9608741328250898,393.40977247658157,74.40594916256214)" fill="none" stroke="#ffa6d5" filter="url(#bbburst-blur-1)"></use><use xlink:href="#bbburst-shape-6" width="8.31073943431359" opacity="0.8800382481156593" transform="matrix(0.9725319339631824,-0.2327694941821892,0.2327694941821892,0.9725319339631824,287.70147563303277,-39.858890649576836)" fill="#00a19d"></use><use xlink:href="#bbburst-shape-6" width="7.084024707671218" opacity="0.917072301927301" transform="matrix(0.999973134905382,-0.007330038710856352,0.007330038710856352,0.999973134905382,382.56228524332147,-35.63377042818047)" fill="#2c2891"></use><use xlink:href="#bbburst-shape-1" width="15.606209594622976" opacity="0.5910218501391256" transform="matrix(0.993761066054538,-0.111530012078132,0.111530012078132,0.993761066054538,242.58689810816895,154.5000571600827)" fill="#ffa6d5" filter="url(#bbburst-blur-1)"></use><use xlink:href="#bbburst-shape-6" width="23.58780129302016" opacity="0.17398134160773793" transform="matrix(1.1154529924004444,0.5641494675570423,-0.5641494675570423,1.1154529924004444,581.7710774701296,317.6012772697013)" fill="#00a19d" filter="url(#bbburst-blur-3)"></use><use xlink:href="#bbburst-shape-10" width="28.319285439575133" opacity="0.39126562227315" transform="matrix(0.8123010894448269,-0.5832383218605816,0.5832383218605816,0.8123010894448269,-118.72691279683362,83.99361774118188)" fill="none" stroke="#ffbd9b" filter="url(#bbburst-blur-2)"></use><use xlink:href="#bbburst-shape-10" width="12.987588789202182" opacity="0.6073500134536662" transform="matrix(0.9540802068496878,0.2995512625539359,-0.2995512625539359,0.9540802068496878,636.7285078860027,-110.32800474083336)" fill="none" stroke="#00a19d" filter="url(#bbburst-blur-1)"></use><use xlink:href="#bbburst-shape-4" width="12.286277396480603" opacity="0.7234365574500818" transform="matrix(0.9593465664515111,-0.2822306954207788,0.2822306954207788,0.9593465664515111,404.9191343555945,4.3465345087660126)" fill="#2c2891" filter="url(#bbburst-blur-1)"></use><use xlink:href="#bbburst-shape-10" width="9.853541572306462" opacity="0.767414938595351" transform="matrix(0.7947420619875896,0.6069473246565259,-0.6069473246565259,0.7947420619875896,659.9815803021202,-23.39772361175784)" fill="none" stroke="#ffa6d5" filter="url(#bbburst-blur-1)"></use><use xlink:href="#bbburst-shape-1" width="15.260490019610234" opacity="0.5195704584761829" transform="matrix(0.8283945028311641,0.5601451130547409,-0.5601451130547409,0.8283945028311641,694.2647919067617,-137.80701416152002)" fill="#00a19d" filter="url(#bbburst-blur-2)"></use><use xlink:href="#bbburst-shape-1" width="17.27411003766318" opacity="0.5279394705141445" transform="matrix(0.8695499160238329,0.4938450602597389,-0.4938450602597389,0.8695499160238329,623.2088958675965,-161.8840094983977)" fill="#00a19d" filter="url(#bbburst-blur-2)"></use><use xlink:href="#bbburst-shape-4" width="6.936534888011993" opacity="0.902203962436736" transform="matrix(0.983062901998553,-0.1832684662296912,0.1832684662296912,0.983062901998553,367.28506411001814,6.610286619956582)" fill="#00a19d"></use><use xlink:href="#bbburst-shape-10" width="26.923841394679933" opacity="0.2032463744992724" transform="matrix(1.0024391984199024,-0.7467366694299025,0.7467366694299025,1.0024391984199024,-54.43904753459867,-320.03615628070935)" fill="none" stroke="#ffa6d5" filter="url(#bbburst-blur-3)"></use><use xlink:href="#bbburst-shape-4" width="25.56749584752719" opacity="0.33300381990521444" transform="matrix(1.1816161266512768,-0.4077785296427872,0.4077785296427872,1.1816161266512768,155.0983932523424,-360.0507100348784)" fill="#ffa6d5" filter="url(#bbburst-blur-3)"></use><use xlink:href="#bbburst-shape-10" width="29.447737444743765" opacity="0.25743576833701265" transform="matrix(1.1529988100357738,0.48279782938212334,-0.48279782938212334,1.1529988100357738,886.299140313811,56.037000907466165)" fill="none" stroke="#00a19d" filter="url(#bbburst-blur-3)"></use><use xlink:href="#bbburst-shape-10" width="29.578080202560287" opacity="0.35314345354132026" transform="matrix(0.7186901170793684,-0.6953305081847364,0.6953305081847364,0.7186901170793684,355.08454793232954,281.77298592999017)" fill="none" stroke="#ffbd9b" filter="url(#bbburst-blur-2)"></use><use xlink:href="#bbburst-shape-6" width="13.823914261866213" opacity="0.6736417013673973" transform="matrix(0.9957623183645987,-0.0919641523918946,0.0919641523918946,0.9957623183645987,263.1338600991982,115.83147560800364)" fill="#ffa6d5" filter="url(#bbburst-blur-1)"></use><use xlink:href="#bbburst-shape-4" width="23.34999746962623" opacity="0.08284419110410624" transform="matrix(1.7305768925716547,-0.2600069593242379,0.2600069593242379,1.7305768925716547,645.5186208157658,-472.5833742863373)" fill="#ffa6d5" filter="url(#bbburst-blur-4)"></use><use xlink:href="#bbburst-shape-10" width="7.310650686851023" opacity="0.8269054547257031" transform="matrix(0.9988559714073614,-0.047819958007681525,0.047819958007681525,0.9988559714073614,321.57078705830105,55.133018693537)" fill="none" stroke="#2c2891"></use><use xlink:href="#bbburst-shape-4" width="11.127268711855306" opacity="0.7216962571411794" transform="matrix(0.8230499669984704,-0.5679689708283515,0.5679689708283515,0.8230499669984704,181.18339684146747,-50.617605154638284)" fill="#2c2891" filter="url(#bbburst-blur-1)"></use><use xlink:href="#bbburst-shape-6" width="8.246814686941617" opacity="0.8711192316277732" transform="matrix(0.7625229086532418,-0.6469612150500212,0.6469612150500212,0.7625229086532418,194.85201301804238,109.47112859748745)" fill="#00a19d"></use><use xlink:href="#bbburst-shape-10" width="30.25595239241" opacity="0.03409950315721533" transform="matrix(1.709847258143701,-0.37272289146022186,0.37272289146022186,1.709847258143701,458.6286049603343,88.25595178481069)" fill="none" stroke="#00a19d" filter="url(#bbburst-blur-4)"></use><use xlink:href="#bbburst-shape-10" width="19.463769634729225" opacity="0.5091434468556665" transform="matrix(0.9449575366944242,0.3271929917409692,-0.3271929917409692,0.9449575366944242,472.3059363891481,-196.463504060157)" fill="none" stroke="#ffbd9b" filter="url(#bbburst-blur-2)"></use><use xlink:href="#bbburst-shape-1" width="7.673558218648321" opacity="0.8279187349827439" transform="matrix(0.7896756049390541,-0.6135246033894151,0.6135246033894151,0.7896756049390541,97.58142004291616,30.975376483495154)" fill="#ffa6d5"></use><use xlink:href="#bbburst-shape-1" width="14.962693964990937" opacity="0.7178466052899994" transform="matrix(0.993210322463934,0.11633252060833268,-0.11633252060833268,0.993210322463934,353.1218660562875,-91.56366971760713)" fill="#00a19d" filter="url(#bbburst-blur-1)"></use><use xlink:href="#bbburst-shape-10" width="7.363327347958493" opacity="0.8491770013379422" transform="matrix(0.8157575826826908,-0.5783939542350809,0.5783939542350809,0.8157575826826908,226.73775056502353,46.27416346736118)" fill="none" stroke="#00a19d"></use><use xlink:href="#bbburst-shape-4" width="13.076587277696197" opacity="0.6184669206399224" transform="matrix(0.8235356864288769,-0.5672644649351117,0.5672644649351117,0.8235356864288769,339.14406798671246,83.7899434938268)" fill="#ffa6d5" filter="url(#bbburst-blur-1)"></use><use xlink:href="#bbburst-shape-6" width="16.82941548119678" opacity="0.5929028825259919" transform="matrix(0.7095117877344199,-0.704693566783398,0.704693566783398,0.7095117877344199,267.1591229325658,219.76149362480425)" fill="#00a19d" filter="url(#bbburst-blur-1)"></use><use xlink:href="#bbburst-shape-1" width="21.29779937751028" opacity="0.5904881458444411" transform="matrix(0.7622573197683217,-0.6472741138494684,0.6472741138494684,0.7622573197683217,142.59119182894932,286.04084998946485)" fill="#ffa6d5" filter="url(#bbburst-blur-1)"></use><use xlink:href="#bbburst-shape-6" width="28.94984624347228" opacity="0.10655168555058603" transform="matrix(1.4842546291665915,-0.9270858621495336,0.9270858621495336,1.4842546291665915,374.764383132488,-16.28260234480831)" fill="#ff5c58" filter="url(#bbburst-blur-4)"></use><use xlink:href="#bbburst-shape-4" width="13.66908461327117" opacity="0.5969621953825104" transform="matrix(0.9288729359792335,0.37039852700209114,-0.37039852700209114,0.9288729359792335,712.0572532807722,88.44986428425165)" fill="#ffa6d5" filter="url(#bbburst-blur-1)"></use><use xlink:href="#bbburst-shape-6" width="10.041792340276672" opacity="0.8000766988649094" transform="matrix(0.9906542198104629,-0.1363972755289607,0.1363972755289607,0.9906542198104629,324.3338752888784,-84.08384485995009)" fill="#ffbd9b"></use><use xlink:href="#bbburst-shape-10" width="19.322512739530115" opacity="0.5814432246989352" transform="matrix(0.8277176260682061,0.5611448400333138,-0.5611448400333138,0.8277176260682061,484.3482857811867,-70.75490283230323)" fill="none" stroke="#ffa6d5" filter="url(#bbburst-blur-1)"></use><use xlink:href="#bbburst-shape-6" width="35.532824859843544" opacity="0.18253211361489496" transform="matrix(0.9194430497749966,0.8468320247962126,-0.8468320247962126,0.9194430497749966,528.6233966815298,329.8648589904336)" fill="#00a19d" filter="url(#bbburst-blur-3)"></use><use xlink:href="#bbburst-shape-6" width="11.205138778621945" opacity="0.7375479809208316" transform="matrix(0.7655559198846407,-0.6433693601109565,0.6433693601109565,0.7655559198846407,163.6017084006753,212.75744639088157)" fill="#2c2891" filter="url(#bbburst-blur-1)"></use><use xlink:href="#bbburst-shape-8" width="26.019450350874312" opacity="0.3213259336799822" transform="matrix(1.1322405373330642,0.5296521175448411,-0.5296521175448411,1.1322405373330642,898.0168390162903,-7.454145638376303)" fill="none" stroke="#ffa6d5" filter="url(#bbburst-blur-3)"></use><use xlink:href="#bbburst-shape-6" width="5.837841513384638" opacity="0.8400405589494258" transform="matrix(0.7755871415951056,0.6312405134275949,-0.6312405134275949,0.7755871415951056,667.6304428193987,18.07514186380132)" fill="#2c2891"></use><use xlink:href="#bbburst-shape-6" width="15.585491421785893" opacity="0.6955192891225006" transform="matrix(0.9980392225552401,-0.06259161478450519,0.06259161478450519,0.9980392225552401,455.2123879286257,106.27134253245254)" fill="#ffa6d5" filter="url(#bbburst-blur-1)"></use><use xlink:href="#bbburst-shape-4" width="27.13087140277506" opacity="0.41898601480905273" transform="matrix(0.8456351490199725,-0.5337613649768677,0.5337613649768677,0.8456351490199725,90.75273021428242,316.50604830923794)" fill="#00a19d" filter="url(#bbburst-blur-2)"></use><use xlink:href="#bbburst-shape-1" width="10.235868234254037" opacity="0.7836589544131315" transform="matrix(0.9479654430114416,0.3183732382850688,-0.3183732382850688,0.9479654430114416,592.00528146997,87.35705156819301)" fill="#ff5c58"></use><use xlink:href="#bbburst-shape-6" width="6.305430891507682" opacity="0.9384939586042972" transform="matrix(0.9895050235651667,0.1444984717541987,-0.1444984717541987,0.9895050235651667,475.60583361684104,21.857543960899193)" fill="#ffa6d5"></use><use xlink:href="#bbburst-shape-6" width="9.148440986354256" opacity="0.8594087438846536" transform="matrix(0.9902835177925836,0.13906313094542963,-0.13906313094542963,0.9902835177925836,390.97551912264214,-16.45188743529917)" fill="#2c2891"></use><use xlink:href="#bbburst-shape-6" width="22.61880082934478" opacity="0.1499843827904831" transform="matrix(1.1788634361331627,-0.4156693384750821,0.4156693384750821,1.1788634361331627,127.30229126611039,-437.84872372908745)" fill="#ffa6d5" filter="url(#bbburst-blur-3)"></use><use xlink:href="#bbburst-shape-10" width="32.8222917082464" opacity="0.3361320718368336" transform="matrix(0.9906216000289112,0.13663398389917417,-0.13663398389917417,0.9906216000289112,150.3607274693908,-77.74627493380234)" fill="none" stroke="#ffbd9b" filter="url(#bbburst-blur-2)"></use><use xlink:href="#bbburst-shape-4" width="5.768897881436709" opacity="0.9407560722270195" transform="matrix(0.7938783400167974,-0.6080766244908402,0.6080766244908402,0.7938783400167974,170.3380150362799,62.774344510018864)" fill="#ff5c58"></use><use xlink:href="#bbburst-shape-1" width="27.42417782752608" opacity="0.30533105181088194" transform="matrix(0.9614306921357021,-0.7988435542829803,0.7988435542829803,0.9614306921357021,-235.1972202155434,105.2206625088358)" fill="#2c2891" filter="url(#bbburst-blur-3)"></use><use xlink:href="#bbburst-shape-8" width="22.084228699293075" opacity="0.5394169042451427" transform="matrix(0.9862852553975525,0.1650496742965116,-0.1650496742965116,0.9862852553975525,269.4713367682756,95.79837914608191)" fill="none" stroke="#00a19d" filter="url(#bbburst-blur-2)"></use><use xlink:href="#bbburst-shape-4" width="21.802967637751486" opacity="0.5606704408770273" transform="matrix(0.8165982204589198,-0.5772065023397825,0.5772065023397825,0.8165982204589198,13.544945037289125,212.2177748529445)" fill="#ffa6d5" filter="url(#bbburst-blur-1)"></use><use xlink:href="#bbburst-shape-1" width="8.527557846427744" opacity="0.7151976724623024" transform="matrix(0.8812370607698494,-0.47267456323110596,0.47267456323110596,0.8812370607698494,274.53473546751803,-59.50332515358974)" fill="#2c2891" filter="url(#bbburst-blur-1)"></use><use xlink:href="#bbburst-shape-10" width="27.15503602742941" opacity="0.32390785969102187" transform="matrix(1.2462234198018187,-0.09709370699205867,0.09709370699205867,1.2462234198018187,85.87349213786183,-257.8217073898114)" fill="none" stroke="#ffa6d5" filter="url(#bbburst-blur-3)"></use><use xlink:href="#bbburst-shape-4" width="24.110636027232797" opacity="0.17062761876350307" transform="matrix(1.1462476503450887,-0.4986144042026496,0.4986144042026496,1.1462476503450887,344.6237981489761,285.7177164627687)" fill="#ffbd9b" filter="url(#bbburst-blur-3)"></use><use xlink:href="#bbburst-shape-10" width="17.730084579460453" opacity="0.5993360618495527" transform="matrix(0.7568934220392904,-0.6535383291541916,0.6535383291541916,0.7568934220392904,99.65112598507221,280.43212151974876)" fill="none" stroke="#2c2891" filter="url(#bbburst-blur-1)"></use><use xlink:href="#bbburst-shape-4" width="5.945560146714648" opacity="0.9136665270311242" transform="matrix(0.9353991446575092,-0.35359360878556634,0.35359360878556634,0.9353991446575092,292.2104459035604,40.40289249776737)" fill="#00a19d"></use><use xlink:href="#bbburst-shape-8" width="12.698935083209825" opacity="0.6698333960642806" transform="matrix(0.8008162507630671,0.5989101205638326,-0.5989101205638326,0.8008162507630671,628.0525185817628,-72.56515770423948)" fill="none" stroke="#2c2891" filter="url(#bbburst-blur-1)"></use><use xlink:href="#bbburst-shape-1" width="18.024281746622126" opacity="0.4438507465807552" transform="matrix(0.7264645878051584,0.6872039018115956,-0.6872039018115956,0.7264645878051584,914.5123177643598,58.26782399515827)" fill="#ff5c58" filter="url(#bbburst-blur-2)"></use><use xlink:href="#bbburst-shape-10" width="10.450853286957518" opacity="0.6610914801483331" transform="matrix(0.7300104962629773,0.6834359336074463,-0.6834359336074463,0.7300104962629773,732.9253438855005,-34.29728373085413)" fill="none" stroke="#2c2891" filter="url(#bbburst-blur-1)"></use><use xlink:href="#bbburst-shape-10" width="20.184254367785734" opacity="0.5335205971731787" transform="matrix(0.9957923163299608,0.09163876220361851,-0.09163876220361851,0.9957923163299608,531.517680374916,182.57715091932693)" fill="none" stroke="#ff5c58" filter="url(#bbburst-blur-2)"></use><use xlink:href="#bbburst-shape-4" width="11.913081431685825" opacity="0.7268127945838242" transform="matrix(0.7223058391135491,-0.6915737666962736,0.6915737666962736,0.7223058391135491,27.731054462974726,197.4789277619277)" fill="#ffa6d5" filter="url(#bbburst-blur-1)"></use><use xlink:href="#bbburst-shape-10" width="12.797811131921051" opacity="0.6731389109446464" transform="matrix(0.9802584291934835,0.19772054014473145,-0.19772054014473145,0.9802584291934835,454.9708266015655,152.63243554313476)" fill="none" stroke="#ffa6d5" filter="url(#bbburst-blur-1)"></use><use xlink:href="#bbburst-shape-10" width="6.990957968134098" opacity="0.9310082917479411" transform="matrix(0.9608999877638105,-0.27689567261968695,0.27689567261968695,0.9608999877638105,256.45776008497796,26.50892419615559)" fill="none" stroke="#2c2891"></use><use xlink:href="#bbburst-shape-6" width="18.137030691001666" opacity="0.6321369733219069" transform="matrix(0.8882707787623058,-0.4593201754735,0.4593201754735,0.8882707787623058,292.77613639256265,191.1690410442635)" fill="#00a19d" filter="url(#bbburst-blur-1)"></use><use xlink:href="#bbburst-shape-4" width="7.575355288882128" opacity="0.8080063942951458" transform="matrix(0.99979819188199,-0.020089188871218074,0.020089188871218074,0.99979819188199,418.1805832559941,-80.85656389263175)" fill="#ff5c58"></use><use xlink:href="#bbburst-shape-6" width="6.136389885117142" opacity="0.9023320410531418" transform="matrix(0.7285352248506491,0.6850083402060256,-0.6850083402060256,0.7285352248506491,636.644885051843,132.9043082175728)" fill="#2c2891"></use><use xlink:href="#bbburst-shape-6" width="10.116775319812694" opacity="0.6911894596039101" transform="matrix(0.9963297255366476,0.08559835285838421,-0.08559835285838421,0.9963297255366476,561.8848581416765,-40.26604457121607)" fill="#ffbd9b" filter="url(#bbburst-blur-1)"></use><use xlink:href="#bbburst-shape-6" width="24.30089670551548" opacity="0.4765456428977911" transform="matrix(0.8678875862536951,-0.49676064420074073,0.49676064420074073,0.8678875862536951,373.811605610255,207.11936365115128)" fill="#00a19d" filter="url(#bbburst-blur-2)"></use><use xlink:href="#bbburst-shape-10" width="4.403223938775486" opacity="0.9875450878870442" transform="matrix(0.8495984665620836,0.5274300385978752,-0.5274300385978752,0.8495984665620836,614.2994352365578,56.903095351220486)" fill="none" stroke="#2c2891"></use><use xlink:href="#bbburst-shape-6" width="7.7916997553614085" opacity="0.8720085911759627" transform="matrix(0.9875177216508857,-0.15750793448408798,0.15750793448408798,0.9875177216508857,287.1647533478681,-29.07343333536801)" fill="#2c2891"></use><use xlink:href="#bbburst-shape-6" width="37.541069884441185" opacity="0.14615562476627275" transform="matrix(1.0255094755754033,-0.7147239435649694,0.7147239435649694,1.0255094755754033,-193.78437696786793,-250.394200630053)" fill="#2c2891" filter="url(#bbburst-blur-3)"></use><use xlink:href="#bbburst-shape-10" width="30.43897201455291" opacity="0.2535313480802218" transform="matrix(0.9880833491100862,0.7656313050100522,-0.7656313050100522,0.9880833491100862,716.9219123525518,328.03987565212674)" fill="none" stroke="#ffa6d5" filter="url(#bbburst-blur-3)"></use><use xlink:href="#bbburst-shape-10" width="18.04827559122125" opacity="0.5024776221553526" transform="matrix(0.9813159339544661,0.19240332057184933,-0.19240332057184933,0.9813159339544661,631.5829865650862,-147.2323511151375)" fill="none" stroke="#ff5c58" filter="url(#bbburst-blur-2)"></use><use xlink:href="#bbburst-shape-10" width="20.59092843325342" opacity="0.5591218818066326" transform="matrix(0.917426515245515,0.39790525144118266,-0.39790525144118266,0.917426515245515,352.1282751913485,46.805070166709015)" fill="none" stroke="#ffbd9b" filter="url(#bbburst-blur-1)"></use><use xlink:href="#bbburst-shape-4" width="12.104121360077361" opacity="0.674731753043321" transform="matrix(0.9182326102183739,-0.39604150480922057,0.39604150480922057,0.9182326102183739,349.9718130694732,-56.76520199647092)" fill="#ff5c58" filter="url(#bbburst-blur-1)"></use><use xlink:href="#bbburst-shape-6" width="9.395935465480653" opacity="0.784904177974183" transform="matrix(0.8533497481204421,0.5213388604188048,-0.5213388604188048,0.8533497481204421,691.3409256124044,99.01469074233637)" fill="#ffa6d5"></use><use xlink:href="#bbburst-shape-10" width="28.428168306873282" opacity="0.042490534008297165" transform="matrix(1.2682209428758229,1.2058671734694326,-1.2058671734694326,1.2682209428758229,642.3276050997448,-493.72018002342594)" fill="none" stroke="#2c2891" filter="url(#bbburst-blur-4)"></use><use xlink:href="#bbburst-shape-4" width="5.325310047405447" opacity="0.9848429491445376" transform="matrix(0.9890458323724429,0.14760874454686468,-0.14760874454686468,0.9890458323724429,453.53537631458823,10.179064275532028)" fill="#00a19d"></use><use xlink:href="#bbburst-shape-6" width="18.10956651253705" opacity="0.5192792471480601" transform="matrix(0.9960528550882982,0.08876209703724716,-0.08876209703724716,0.9960528550882982,642.8066031380087,-0.4544988023093879)" fill="#2c2891" filter="url(#bbburst-blur-2)"></use><use xlink:href="#bbburst-shape-8" width="21.162217239869776" opacity="0.2066858007571304" transform="matrix(1.0701556862378956,0.645961923965104,-0.645961923965104,1.0701556862378956,1003.8934178996651,-24.23312314896856)" fill="none" stroke="#ffa6d5" filter="url(#bbburst-blur-3)"></use><use xlink:href="#bbburst-shape-6" width="21.469011770209022" opacity="0.1541213996251818" transform="matrix(1.0206551928317653,-0.7216390907826099,0.7216390907826099,1.0206551928317653,189.89405390462957,369.4570665375612)" fill="#2c2891" filter="url(#bbburst-blur-3)"></use><use xlink:href="#bbburst-shape-4" width="12.910460586785696" opacity="0.7010943547711268" transform="matrix(0.9791661788129322,0.20306056798128203,-0.20306056798128203,0.9791661788129322,597.2142188848723,62.99642261255633)" fill="#ffbd9b" filter="url(#bbburst-blur-1)"></use><use xlink:href="#bbburst-shape-6" width="37.919833502728075" opacity="0.21039257347273954" transform="matrix(1.078337627701362,0.6322087951645395,-0.6322087951645395,1.078337627701362,277.2027712017225,-51.23007733276404)" fill="#ffa6d5" filter="url(#bbburst-blur-3)"></use><use xlink:href="#bbburst-shape-1" width="13.758526220690051" opacity="0.7313270273000507" transform="matrix(0.8747496932335538,0.4845750449494933,-0.4845750449494933,0.8747496932335538,471.20889063265975,78.76836227726824)" fill="#ff5c58" filter="url(#bbburst-blur-1)"></use><use xlink:href="#bbburst-shape-4" width="32.088650179010145" opacity="0.2778604137680868" transform="matrix(1.1938091124635257,0.370566867109094,-0.370566867109094,1.1938091124635257,446.77536214057557,230.9375826689606)" fill="#ffa6d5" filter="url(#bbburst-blur-3)"></use><use xlink:href="#bbburst-shape-10" width="10.750843244929449" opacity="0.784575754389068" transform="matrix(0.9804745101130417,-0.19664621791072134,0.19664621791072134,0.9804745101130417,241.34888510670322,70.62593388324018)" fill="none" stroke="#ff5c58"></use><use xlink:href="#bbburst-shape-6" width="27.026307911472472" opacity="0.19078260954512383" transform="matrix(1.1527471168752106,-0.4833984738659085,0.4833984738659085,1.1527471168752106,487.88550583995254,156.38478593157606)" fill="#ffa6d5" filter="url(#bbburst-blur-3)"></use><use xlink:href="#bbburst-shape-6" width="13.53466119619199" opacity="0.6722288957121156" transform="matrix(0.8870391452320738,0.4616942222141747,-0.4616942222141747,0.8870391452320738,431.5036788549688,51.86057268343836)" fill="#00a19d" filter="url(#bbburst-blur-1)"></use><use xlink:href="#bbburst-shape-8" width="34.39435931347025" opacity="0.3260646157678986" transform="matrix(1.1992701014807214,0.35249287041643795,-0.35249287041643795,1.1992701014807214,309.22699923082666,-303.46373973278196)" fill="none" stroke="#ffbd9b" filter="url(#bbburst-blur-3)"></use><use xlink:href="#bbburst-shape-4" width="27.683315426906365" opacity="0.01317549330261547" transform="matrix(1.6344529364486298,0.625350780390055,-0.625350780390055,1.6344529364486298,261.6066591748109,-514.031477313596)" fill="#ffbd9b" filter="url(#bbburst-blur-4)"></use><use xlink:href="#bbburst-shape-1" width="19.906128010953587" opacity="0.34799250627055045" transform="matrix(0.9223745636439524,-0.38629673094996336,0.38629673094996336,0.9223745636439524,238.81033132077863,-258.4740610527794)" fill="#2c2891" filter="url(#bbburst-blur-2)"></use><use xlink:href="#bbburst-shape-6" width="7.7531800168744605" opacity="0.8547808723026527" transform="matrix(0.7262624721468481,-0.6874175016328495,0.6874175016328495,0.7262624721468481,156.301295835818,56.40378888778588)" fill="#ffa6d5"></use><use xlink:href="#bbburst-shape-4" width="22.917698638272352" opacity="0.3986261566163467" transform="matrix(0.823004185398494,0.5680353077200055,-0.5680353077200055,0.823004185398494,888.3849881788138,65.92515415420985)" fill="#2c2891" filter="url(#bbburst-blur-2)"></use><use xlink:href="#bbburst-shape-10" width="10.900320229562267" opacity="0.7552152339485494" transform="matrix(0.7937181689496221,-0.6082856798242575,0.6082856798242575,0.7937181689496221,118.79953265522906,-19.088275248417006)" fill="none" stroke="#00a19d" filter="url(#bbburst-blur-1)"></use><use xlink:href="#bbburst-shape-4" width="27.368653661119133" opacity="0.12776526513625353" transform="matrix(1.2326142405796618,-0.20775498530775013,0.20775498530775013,1.2326142405796618,164.26249089972185,278.10275138182215)" fill="#ffbd9b" filter="url(#bbburst-blur-3)"></use><use xlink:href="#bbburst-shape-6" width="26.447373852414692" opacity="0.33745095550849313" transform="matrix(0.9712544288806211,0.23804376568139415,-0.23804376568139415,0.9712544288806211,766.767525667527,-81.15862872444404)" fill="#2c2891" filter="url(#bbburst-blur-2)"></use><use xlink:href="#bbburst-shape-6" width="45.69219830780431" opacity="-0.0873431435767682" transform="matrix(1.5033872686075989,-0.895726923000857,0.895726923000857,1.5033872686075989,-332.97491426871363,-532.4422565561979)" fill="#ff5c58" filter="url(#bbburst-blur-4)"></use><use xlink:href="#bbburst-shape-4" width="10.814351997253295" opacity="0.7315350385153206" transform="matrix(0.9802804681827115,-0.19761124385895648,0.19761124385895648,0.9802804681827115,286.5968898850623,126.22801094411727)" fill="#ff5c58" filter="url(#bbburst-blur-1)"></use><use xlink:href="#bbburst-shape-8" width="6.877017681963484" opacity="0.8790131539736691" transform="matrix(0.8797797423603368,-0.4753815361710836,0.4753815361710836,0.8797797423603368,253.03005206754676,78.51502107436619)" fill="none" stroke="#ff5c58"></use><use xlink:href="#bbburst-shape-4" width="8.801414287011893" opacity="0.8097931551899873" transform="matrix(0.7278113271730666,-0.6857774216453757,0.6857774216453757,0.7278113271730666,38.855518156559754,130.09748453446514)" fill="#ffa6d5"></use><use xlink:href="#bbburst-shape-6" width="10.590339735703964" opacity="0.7293838605260585" transform="matrix(0.8434248045840064,0.5372472419775003,-0.5372472419775003,0.8434248045840064,490.16854079858376,40.64858458707221)" fill="#00a19d" filter="url(#bbburst-blur-1)"></use><use xlink:href="#bbburst-shape-6" width="8.91924202006965" opacity="0.7631427759368398" transform="matrix(0.947648157155955,-0.3193164108512471,0.3193164108512471,0.947648157155955,161.61247850828536,28.034777362974637)" fill="#00a19d" filter="url(#bbburst-blur-1)"></use><use xlink:href="#bbburst-shape-4" width="25.95782117924846" opacity="0.3410961734005251" transform="matrix(0.8291955850301181,0.558958568917733,-0.558958568917733,0.8291955850301181,874.5768622395487,-78.17355110685475)" fill="#2c2891" filter="url(#bbburst-blur-2)"></use><use xlink:href="#bbburst-shape-6" width="6.0391555577844915" opacity="0.9033342436406213" transform="matrix(0.9994528377275705,-0.033076051129275814,0.033076051129275814,0.9994528377275705,404.32156439616176,-38.009949115568986)" fill="#2c2891"></use><use xlink:href="#bbburst-shape-6" width="45.0033376744844" opacity="-0.10011601027081629" transform="matrix(1.6288815949657722,-0.6397224004064279,0.6397224004064279,1.6288815949657722,452.7102205998725,117.63612593478479)" fill="#ffa6d5" filter="url(#bbburst-blur-4)"></use><use xlink:href="#bbburst-shape-10" width="22.100022554178487" opacity="0.39205596721862557" transform="matrix(0.9166997887283111,0.3995766476478195,-0.3995766476478195,0.9166997887283111,309.34627495483744,159.5673994467461)" fill="none" stroke="#00a19d" filter="url(#bbburst-blur-2)"></use><use xlink:href="#bbburst-shape-4" width="20.871857340923093" opacity="0.47241793024279155" transform="matrix(0.9966673030044145,0.08157381394728644,-0.08157381394728644,0.9966673030044145,643.1389256460418,-86.460523176067)" fill="#ffbd9b" filter="url(#bbburst-blur-2)"></use><use xlink:href="#bbburst-shape-1" width="6.442621334467272" opacity="0.8543436863836165" transform="matrix(0.9628709302374572,-0.269962167170983,0.269962167170983,0.9628709302374572,225.88149277439237,33.69823791191618)" fill="#ffbd9b"></use><use xlink:href="#bbburst-shape-4" width="6.873139086942443" opacity="0.830477310094683" transform="matrix(0.9916641001653993,-0.1288499609745725,0.1288499609745725,0.9916641001653993,370.4008606377376,75.7341236372053)" fill="#ff5c58"></use><use xlink:href="#bbburst-shape-8" width="35.452665452582806" opacity="0.23429283421709024" transform="matrix(1.1723731285533583,-0.4336372302351482,0.4336372302351482,1.1723731285533583,-93.80280893228425,108.99459919838046)" fill="none" stroke="#2c2891" filter="url(#bbburst-blur-3)"></use><use xlink:href="#bbburst-shape-1" width="4.855305672725943" opacity="0.9748417540139366" transform="matrix(0.9784406244118624,0.20652831404077465,-0.20652831404077465,0.9784406244118624,471.0092326622387,1.566461445076527)" fill="#ffa6d5"></use><use xlink:href="#bbburst-shape-6" width="31.402792084973616" opacity="0.126916951217121" transform="matrix(1.1357092197225214,0.5221729294374243,-0.5221729294374243,1.1357092197225214,852.256296759532,230.988207350597)" fill="#ffa6d5" filter="url(#bbburst-blur-3)"></use><use xlink:href="#bbburst-shape-4" width="20.048774334469236" opacity="0.5019614207452148" transform="matrix(0.9977754809289665,-0.06666400570750025,0.06666400570750025,0.9977754809289665,332.34094905738544,223.5403228737299)" fill="#00a19d" filter="url(#bbburst-blur-2)"></use><use xlink:href="#bbburst-shape-6" width="7.812181604788984" opacity="0.9105556228130008" transform="matrix(0.9955580573830531,-0.0941496382344694,0.0941496382344694,0.9955580573830531,322.86022202973527,-16.652372920583502)" fill="#2c2891"></use><use xlink:href="#bbburst-shape-1" width="5.739246209075752" opacity="0.9484912867474782" transform="matrix(0.9302671807179491,-0.3668827775721812,0.3668827775721812,0.9302671807179491,273.3452014303564,33.3130911985985)" fill="#ffa6d5"></use><use xlink:href="#bbburst-shape-10" width="24.00098555535325" opacity="0.38900831829441407" transform="matrix(0.846375899281518,0.5325859903484147,-0.5325859903484147,0.846375899281518,782.8401086508794,-152.80913952645975)" fill="none" stroke="#2c2891" filter="url(#bbburst-blur-2)"></use><use xlink:href="#bbburst-shape-6" width="11.561510247381511" opacity="0.7122121767698186" transform="matrix(0.9846168799570948,0.17472721511990025,-0.17472721511990025,0.9846168799570948,504.6255828386447,-117.88965568769095)" fill="#00a19d" filter="url(#bbburst-blur-1)"></use><use xlink:href="#bbburst-shape-8" width="11.909725223458317" opacity="0.6606758692375971" transform="matrix(0.9939335848192303,-0.10998194837514869,0.10998194837514869,0.9939335848192303,374.85049924049446,-147.59321867185736)" fill="none" stroke="#2c2891" filter="url(#bbburst-blur-1)"></use><use xlink:href="#bbburst-shape-8" width="19.515439165860933" opacity="0.10502186550600823" transform="matrix(1.736819804091209,0.21437576382738355,-0.21437576382738355,1.736819804091209,622.7539563240955,-668.973899301571)" fill="none" stroke="#ffbd9b" filter="url(#bbburst-blur-4)"></use><use xlink:href="#bbburst-shape-10" width="17.06006677699107" opacity="0.5870221496651695" transform="matrix(0.9991130674706724,0.042107937604965444,-0.042107937604965444,0.9991130674706724,408.86215378799716,-185.84365366763728)" fill="none" stroke="#00a19d" filter="url(#bbburst-blur-1)"></use><use xlink:href="#bbburst-shape-8" width="12.647544710758492" opacity="0.7525492345578719" transform="matrix(0.9801272022369755,0.19837002655421276,-0.19837002655421276,0.9801272022369755,532.4286080543409,100.95757748627796)" fill="none" stroke="#00a19d" filter="url(#bbburst-blur-1)"></use><use xlink:href="#bbburst-shape-10" width="5.282978953386678" opacity="0.8912121939326098" transform="matrix(0.7084247715135422,0.7057863296394918,-0.7057863296394918,0.7084247715135422,670.5950275099564,162.71946163756309)" fill="none" stroke="#00a19d"></use><use xlink:href="#bbburst-shape-10" width="7.368679579702128" opacity="0.858687947892881" transform="matrix(0.824004017924036,-0.5665839553367578,0.5665839553367578,0.824004017924036,233.48295260772954,65.03533968048504)" fill="none" stroke="#ffa6d5"></use><use xlink:href="#bbburst-shape-4" width="7.383146142878747" opacity="0.9146711478000416" transform="matrix(0.7993255999753919,-0.6008981487939364,0.6008981487939364,0.7993255999753919,186.65814506737954,58.481835978225035)" fill="#00a19d"></use><use xlink:href="#bbburst-shape-4" width="6.414613139672575" opacity="0.8320093225957943" transform="matrix(0.9914888474438283,-0.1301916487126155,0.1301916487126155,0.9914888474438283,337.3716379802984,79.06325470897491)" fill="#00a19d"></use><use xlink:href="#bbburst-shape-10" width="30.33237827655304" opacity="0.3320640228732683" transform="matrix(1.2416239592362366,0.14446433418159818,-0.14446433418159818,1.2416239592362366,286.96079591003974,-358.1488631633652)" fill="none" stroke="#2c2891" filter="url(#bbburst-blur-3)"></use><use xlink:href="#bbburst-shape-6" width="17.858309846587723" opacity="0.5468421143647031" transform="matrix(0.8798355082067536,0.47527831688239636,-0.47527831688239636,0.8798355082067536,706.1412570188061,-118.15315280051055)" fill="#ffa6d5" filter="url(#bbburst-blur-2)"></use><use xlink:href="#bbburst-shape-10" width="43.58819849840263" opacity="-0.09716898811994579" transform="matrix(1.7430411143875613,0.15590918367616574,-0.15590918367616574,1.7430411143875613,68.16497752365905,41.26188392929453)" fill="none" stroke="#ffa6d5" filter="url(#bbburst-blur-4)"></use><use xlink:href="#bbburst-shape-4" width="5.997340983076575" opacity="0.9309361133300459" transform="matrix(0.8311058895573651,0.5561141972140803,-0.5561141972140803,0.8311058895573651,649.9102275636681,57.63023344219732)" fill="#2c2891"></use><use xlink:href="#bbburst-shape-4" width="13.165695091960941" opacity="0.7823147634023804" transform="matrix(0.9553062703542723,0.29561787804835143,-0.29561787804835143,0.9553062703542723,419.5635079220672,-16.609505759915123)" fill="#ff5c58"></use><use xlink:href="#bbburst-shape-4" width="8.269649217857326" opacity="0.8215937657456479" transform="matrix(0.8661180059576962,-0.49983957401936885,0.49983957401936885,0.8661180059576962,276.2888312803386,64.39778381053702)" fill="#ffa6d5"></use><use xlink:href="#bbburst-shape-10" width="23.663953554084397" opacity="0.33124830737355426" transform="matrix(1.2499860508259577,-0.005905314600103338,0.005905314600103338,1.2499860508259577,234.08951309386686,161.67579163428593)" fill="none" stroke="#00a19d" filter="url(#bbburst-blur-3)"></use><use xlink:href="#bbburst-shape-4" width="17.474012644755163" opacity="0.5465427539074006" transform="matrix(0.9073409237213551,-0.42039558530089016,0.42039558530089016,0.9073409237213551,403.5302722357391,-56.09551180836564)" fill="#ffa6d5" filter="url(#bbburst-blur-2)"></use><use xlink:href="#bbburst-shape-6" width="12.124015657857278" opacity="0.7647808469140209" transform="matrix(0.9611129296727051,-0.2761556380303501,0.2761556380303501,0.9611129296727051,220.9110244322789,102.43481566779076)" fill="#ffa6d5" filter="url(#bbburst-blur-1)"></use><use xlink:href="#bbburst-shape-4" width="7.455771890264203" opacity="0.930975330716556" transform="matrix(0.9998210947193114,0.018915035138161198,-0.018915035138161198,0.9998210947193114,407.6302277600364,-30.821010368422947)" fill="#00a19d"></use><use xlink:href="#bbburst-shape-8" width="20.365708747248288" opacity="0.5914635979168232" transform="matrix(0.8987295853601713,-0.43850328664484894,0.43850328664484894,0.8987295853601713,51.29507998409389,-37.802110837622536)" fill="none" stroke="#2c2891" filter="url(#bbburst-blur-1)"></use><use xlink:href="#bbburst-shape-4" width="26.32278209209425" opacity="0.15607606354309378" transform="matrix(1.165921822230698,-0.4506953565838559,0.4506953565838559,1.165921822230698,-163.9722561044136,31.96620728426393)" fill="#ffa6d5" filter="url(#bbburst-blur-3)"></use><use xlink:href="#bbburst-shape-10" width="20.17847509436828" opacity="0.5592389165535948" transform="matrix(0.7735787830838861,-0.6337001391529388,0.6337001391529388,0.7735787830838861,49.676252274350304,-80.27176407646874)" fill="none" stroke="#00a19d" filter="url(#bbburst-blur-1)"></use><use xlink:href="#bbburst-shape-10" width="15.704385364635257" opacity="0.6445488608235801" transform="matrix(0.8507034764540637,0.5256458837934245,-0.5256458837934245,0.8507034764540637,543.4705443345171,203.82070055519318)" fill="none" stroke="#2c2891" filter="url(#bbburst-blur-1)"></use><use xlink:href="#bbburst-shape-10" width="14.877369817414703" opacity="0.6628172524777671" transform="matrix(0.968419873640548,0.24932498538659348,-0.24932498538659348,0.968419873640548,611.7065995145974,104.6853631220389)" fill="none" stroke="#00a19d" filter="url(#bbburst-blur-1)"></use><use xlink:href="#bbburst-shape-10" width="6.054741586631935" opacity="0.9578400236243102" transform="matrix(0.9741637819712083,0.22584270166545595,-0.22584270166545595,0.9741637819712083,483.96510265397325,28.311449222318856)" fill="none" stroke="#ff5c58"></use><use xlink:href="#bbburst-shape-10" width="8.706722544070692" opacity="0.7724724729089048" transform="matrix(0.8878732717851687,0.4600880929229748,-0.4600880929229748,0.8878732717851687,538.9288207766324,136.56191141299377)" fill="none" stroke="#ffa6d5" filter="url(#bbburst-blur-1)"></use><use xlink:href="#bbburst-shape-10" width="13.868607340124811" opacity="0.7270284504255402" transform="matrix(0.9982918810065875,0.058423628065444315,-0.058423628065444315,0.9982918810065875,357.18270105866884,-107.31704840371708)" fill="none" stroke="#00a19d" filter="url(#bbburst-blur-1)"></use><use xlink:href="#bbburst-shape-4" width="6.9579900745394045" opacity="0.8493498056355113" transform="matrix(0.9587447403074951,0.28426839946204663,-0.28426839946204663,0.9587447403074951,508.77978095950846,-52.25474278448763)" fill="#2c2891"></use><use xlink:href="#bbburst-shape-8" width="4.961373763081006" opacity="0.9674984003874457" transform="matrix(0.9425024777139469,0.33419916143382383,-0.33419916143382383,0.9425024777139469,540.7807658648044,33.34198796317628)" fill="none" stroke="#ff5c58"></use><use xlink:href="#bbburst-shape-10" width="18.204591386439184" opacity="0.16114030464877993" transform="matrix(1.070402897713061,-0.645552195076031,0.645552195076031,1.070402897713061,505.84297413358956,-74.86531099856717)" fill="none" stroke="#ffa6d5" filter="url(#bbburst-blur-3)"></use><use xlink:href="#bbburst-shape-8" width="24.9886624882948" opacity="0.4665680112864101" transform="matrix(0.863129446290097,0.5049827313353898,-0.5049827313353898,0.863129446290097,371.91796297954977,-49.19735883496719)" fill="none" stroke="#2c2891" filter="url(#bbburst-blur-2)"></use><use xlink:href="#bbburst-shape-10" width="24.03375880191991" opacity="0.4467576544420563" transform="matrix(0.9821863565790313,0.1879094488044917,-0.1879094488044917,0.9821863565790313,555.6642853160278,236.08307821031872)" fill="none" stroke="#ff5c58" filter="url(#bbburst-blur-2)"></use><use xlink:href="#bbburst-shape-6" width="14.173534407399433" opacity="0.6912448858618491" transform="matrix(0.8955185846320725,0.4450241168505024,-0.4450241168505024,0.8955185846320725,625.3161680096873,166.8014687997507)" fill="#ffa6d5" filter="url(#bbburst-blur-1)"></use><use xlink:href="#bbburst-shape-10" width="17.110131515324376" opacity="0.4377852582676187" transform="matrix(0.739197193816454,0.6734890560758058,-0.6734890560758058,0.739197193816454,870.557425923502,-46.20591146020425)" fill="none" stroke="#2c2891" filter="url(#bbburst-blur-2)"></use><use xlink:href="#bbburst-shape-4" width="14.61865020283761" opacity="0.738057227401935" transform="matrix(0.830623485032012,0.5568344692215766,-0.5568344692215766,0.830623485032012,711.5057226209178,133.67501971763232)" fill="#ffa6d5" filter="url(#bbburst-blur-1)"></use><use xlink:href="#bbburst-shape-6" width="27.948679911145582" opacity="0.21293836419307088" transform="matrix(1.1702711032102346,-0.43927843674724154,0.43927843674724154,1.1702711032102346,421.01558454930944,-344.88026073727)" fill="#ffa6d5" filter="url(#bbburst-blur-3)"></use><use xlink:href="#bbburst-shape-4" width="15.72917029901825" opacity="0.605816755766835" transform="matrix(0.9932495270248752,-0.11599731490367214,0.11599731490367214,0.9932495270248752,392.89076381870467,-167.38845974281216)" fill="#ffa6d5" filter="url(#bbburst-blur-1)"></use><use xlink:href="#bbburst-shape-4" width="5.916197237734601" opacity="0.8145162899164008" transform="matrix(0.9870539527404587,-0.16038857309495685,0.16038857309495685,0.9870539527404587,343.7164707042565,88.42536723324207)" fill="#ffa6d5"></use><use xlink:href="#bbburst-shape-6" width="7.812124710861308" opacity="0.8264795550433014" transform="matrix(0.9997833440708375,0.020815016659454205,-0.020815016659454205,0.9997833440708375,362.133428335699,65.64782345400528)" fill="#00a19d"></use><use xlink:href="#bbburst-shape-6" width="24.630665948174872" opacity="0.16103236868931747" transform="matrix(1.2275352190658542,0.23591796445575183,-0.23591796445575183,1.2275352190658542,250.0700761496272,-393.9354158407668)" fill="#2c2891" filter="url(#bbburst-blur-3)"></use><use xlink:href="#bbburst-shape-10" width="7.599772817763718" opacity="0.8346954789133415" transform="matrix(0.8791089277665213,-0.4766209113343614,0.4766209113343614,0.8791089277665213,263.4193175023155,97.47218511959926)" fill="none" stroke="#2c2891"></use><use xlink:href="#bbburst-shape-8" width="7.095812387854435" opacity="0.8722222214040763" transform="matrix(0.9854632064622454,-0.1698889893699704,0.1698889893699704,0.9854632064622454,301.01207503429254,56.895371144484386)" fill="none" stroke="#ffbd9b"></use><use xlink:href="#bbburst-shape-10" width="7.311967758910434" opacity="0.9441834973964494" transform="matrix(0.8869405704119587,0.46188356168769334,-0.46188356168769334,0.8869405704119587,557.0953195503844,37.63850380438549)" fill="none" stroke="#00a19d"></use><use xlink:href="#bbburst-shape-6" width="10.568647998364217" opacity="0.795692330134402" transform="matrix(0.800845194585774,0.5988714171747336,-0.5988714171747336,0.800845194585774,716.1972356400302,32.7824221478121)" fill="#2c2891"></use><use xlink:href="#bbburst-shape-10" width="27.853763834994805" opacity="0.16435935993291861" transform="matrix(1.1956090466475098,0.3647177094337928,-0.3647177094337928,1.1956090466475098,588.5070857389459,-454.6607593688184)" fill="none" stroke="#00a19d" filter="url(#bbburst-blur-3)"></use><use xlink:href="#bbburst-shape-8" width="24.394346372119408" opacity="0.5102183233916545" transform="matrix(0.9999776151312413,0.006690981724309796,-0.006690981724309796,0.9999776151312413,173.41370593439123,-38.274329703968704)" fill="none" stroke="#00a19d" filter="url(#bbburst-blur-2)"></use><use xlink:href="#bbburst-shape-8" width="30.48276517034573" opacity="0.15528323657020726" transform="matrix(1.1723253806730929,0.4337662986329019,-0.4337662986329019,1.1723253806730929,214.60302681893324,-243.43375782191077)" fill="none" stroke="#ffbd9b" filter="url(#bbburst-blur-3)"></use><use xlink:href="#bbburst-shape-8" width="19.168024995728757" opacity="0.3416834727565119" transform="matrix(0.8381827222311683,-0.5453895159912301,0.5453895159912301,0.8381827222311683,319.77764371516184,-187.83152015239102)" fill="none" stroke="#ff5c58" filter="url(#bbburst-blur-2)"></use><use xlink:href="#bbburst-shape-1" width="9.336937223471836" opacity="0.8215170591216387" transform="matrix(0.9033900769062096,-0.42881973945632745,0.42881973945632745,0.9033900769062096,154.9916218311659,0.002263051244710823)" fill="#ffa6d5"></use><use xlink:href="#bbburst-shape-10" width="6.304902792063363" opacity="0.9618110433403164" transform="matrix(0.8329402001071242,-0.5533630119961975,0.5533630119961975,0.8329402001071242,191.3358281642514,60.75645075182257)" fill="none" stroke="#00a19d"></use><use xlink:href="#bbburst-shape-4" width="40.19894278039604" opacity="0.11445358254486993" transform="matrix(0.9552487325236602,-0.8062256873927678,0.8062256873927678,0.9552487325236602,-232.4774521981994,306.582205114335)" fill="#ffbd9b" filter="url(#bbburst-blur-3)"></use><use xlink:href="#bbburst-shape-8" width="35.8033090886672" opacity="0.3028265236482526" transform="matrix(0.9772317811801046,0.7794344397391999,-0.7794344397391999,0.9772317811801046,912.5306135427174,220.52458582745953)" fill="none" stroke="#2c2891" filter="url(#bbburst-blur-3)"></use><use xlink:href="#bbburst-shape-8" width="14.686465198798533" opacity="0.6507629000994517" transform="matrix(0.7503099337748602,0.6610862298359912,-0.6610862298359912,0.7503099337748602,815.0032525299987,76.64388793119213)" fill="none" stroke="#ffa6d5" filter="url(#bbburst-blur-1)"></use><use xlink:href="#bbburst-shape-4" width="7.910855700846345" opacity="0.7842397402942227" transform="matrix(0.9244897319700007,-0.3812069457421209,0.3812069457421209,0.9244897319700007,317.29150423567216,-31.80433740680968)" fill="#ffa6d5"></use><use xlink:href="#bbburst-shape-4" width="8.79996669235588" opacity="0.7890909541291509" transform="matrix(0.985289590860509,-0.1708930137306108,0.1708930137306108,0.985289590860509,310.05650070963554,99.97181633825932)" fill="#ff5c58"></use><use xlink:href="#bbburst-shape-6" width="29.309036046064605" opacity="0.4414682188926151" transform="matrix(0.9973191429239125,0.07317463465923485,-0.07317463465923485,0.9973191429239125,225.576416458473,165.5928495103226)" fill="#00a19d" filter="url(#bbburst-blur-2)"></use><use xlink:href="#bbburst-shape-8" width="7.8741505857194865" opacity="0.9051960807467193" transform="matrix(0.9858844721385762,0.16742702170211618,-0.16742702170211618,0.9858844721385762,420.5966657951267,1.1921121653126079)" fill="none" stroke="#ffbd9b"></use><use xlink:href="#bbburst-shape-10" width="23.57136220344083" opacity="0.3008840517950916" transform="matrix(1.2281082803980112,0.2329164047847202,-0.2329164047847202,1.2281082803980112,790.9076344423646,-132.6692204477809)" fill="none" stroke="#ffbd9b" filter="url(#bbburst-blur-3)"></use><use xlink:href="#bbburst-shape-4" width="12.440922009182902" opacity="0.5934434724989757" transform="matrix(0.9999927345176726,-0.003811943319054317,0.003811943319054317,0.9999927345176726,540.2649431531803,-107.49753881817782)" fill="#ffbd9b" filter="url(#bbburst-blur-1)"></use><use xlink:href="#bbburst-shape-4" width="5.9991938010253305" opacity="0.8473604132923721" transform="matrix(0.9339903301397355,-0.3572982832389036,0.3572982832389036,0.9339903301397355,195.18526881572478,62.49080177895473)" fill="#00a19d"></use><use xlink:href="#bbburst-shape-4" width="11.437835861138552" opacity="0.6541935299812245" transform="matrix(0.9938827574666927,-0.11044032058267098,0.11044032058267098,0.9938827574666927,488.15680394203696,-68.793301259126)" fill="#2c2891" filter="url(#bbburst-blur-1)"></use><use xlink:href="#bbburst-shape-4" width="10.649996104353662" opacity="0.697615523913989" transform="matrix(0.84754753127373,-0.5307194948669267,0.5307194948669267,0.84754753127373,152.3299673541544,-68.70887661393073)" fill="#ffa6d5" filter="url(#bbburst-blur-1)"></use><use xlink:href="#bbburst-shape-10" width="14.806964414940406" opacity="0.6636561971423593" transform="matrix(0.9832787644547512,-0.1821067581731608,0.1821067581731608,0.9832787644547512,466.3847728896622,46.03533695829327)" fill="none" stroke="#ffa6d5" filter="url(#bbburst-blur-1)"></use><use xlink:href="#bbburst-shape-8" width="28.831562395891076" opacity="0.2833890590378494" transform="matrix(1.2295157130425567,0.2253688340952521,-0.2253688340952521,1.2295157130425567,546.8744027760771,-408.817928976982)" fill="none" stroke="#ffbd9b" filter="url(#bbburst-blur-3)"></use><use xlink:href="#bbburst-shape-4" width="11.71561663873128" opacity="0.5928895381986481" transform="matrix(0.9244403309233935,-0.38132672940963214,0.38132672940963214,0.9244403309233935,329.5809389133769,-128.47321877179837)" fill="#ffbd9b" filter="url(#bbburst-blur-1)"></use><use xlink:href="#bbburst-shape-6" width="6.92903424299778" opacity="0.9268842889562982" transform="matrix(0.7976503326513241,0.6031201761019374,-0.6031201761019374,0.7976503326513241,633.2908976563897,111.33997875789527)" fill="#2c2891"></use><use xlink:href="#bbburst-shape-1" width="19.522568352110554" opacity="0.6326034462377423" transform="matrix(0.8838675770152709,0.46773721928146184,-0.46773721928146184,0.8838675770152709,415.9876112037728,11.287489811016997)" fill="#ffa6d5" filter="url(#bbburst-blur-1)"></use><use xlink:href="#bbburst-shape-10" width="8.295445639790566" opacity="0.8186901335807754" transform="matrix(0.7119088681123544,-0.7022718586864963,0.7022718586864963,0.7119088681123544,160.97465130196292,186.31490616592987)" fill="none" stroke="#ffa6d5"></use><use xlink:href="#bbburst-shape-4" width="8.09855811790129" opacity="0.8784890302009372" transform="matrix(0.8549609590740328,0.5186923543481339,-0.5186923543481339,0.8549609590740328,644.2837950282044,18.93496569760896)" fill="#ffa6d5"></use><use xlink:href="#bbburst-shape-6" width="10.885945258394894" opacity="0.7491415668340513" transform="matrix(0.728721997067425,0.6848096458068211,-0.6848096458068211,0.728721997067425,662.0143554454053,-7.8225951083193195)" fill="#00a19d" filter="url(#bbburst-blur-1)"></use><use xlink:href="#bbburst-shape-1" width="7.0457513434207035" opacity="0.8696768022884236" transform="matrix(0.9992053634091963,0.03985776880729646,-0.03985776880729646,0.9992053634091963,448.46612100122485,46.44835990029793)" fill="#ff5c58"></use><use xlink:href="#bbburst-shape-4" width="22.25585572679268" opacity="0.3779977632962075" transform="matrix(0.9812374239676206,0.1928033137821754,-0.1928033137821754,0.9812374239676206,451.1083849194088,284.87329494706455)" fill="#00a19d" filter="url(#bbburst-blur-2)"></use><use xlink:href="#bbburst-shape-6" width="6.820267530560379" opacity="0.8700233148060813" transform="matrix(0.9812436216393898,0.19277176917799457,-0.19277176917799457,0.9812436216393898,495.0070131846411,61.3401479597743)" fill="#ffa6d5"></use><use xlink:href="#bbburst-shape-10" width="30.99307033405519" opacity="0.20281292329626854" transform="matrix(0.9258920310690115,0.8397761289789683,-0.8397761289789683,0.9258920310690115,705.4978884468213,-341.74475963910646)" fill="none" stroke="#00a19d" filter="url(#bbburst-blur-3)"></use><use xlink:href="#bbburst-shape-4" width="11.402615454334319" opacity="0.662381328726215" transform="matrix(0.9880001871005291,-0.15445267977383756,0.15445267977383756,0.9880001871005291,425.3887945049579,-114.6013262969035)" fill="#2c2891" filter="url(#bbburst-blur-1)"></use><use xlink:href="#bbburst-shape-6" width="40.95259475813799" opacity="0.05967954794178354" transform="matrix(1.5741376393497946,0.7645853074590538,-0.7645853074590538,1.5741376393497946,308.20357686377446,-31.91956273181154)" fill="#2c2891" filter="url(#bbburst-blur-4)"></use><use xlink:href="#bbburst-shape-4" width="21.75127987579102" opacity="0.469457770379171" transform="matrix(0.9567858173052641,0.29079356905457493,-0.29079356905457493,0.9567858173052641,363.2505955299689,-177.29504979979617)" fill="#2c2891" filter="url(#bbburst-blur-2)"></use><use xlink:href="#bbburst-shape-8" width="12.143516332503161" opacity="0.6538632186119451" transform="matrix(0.8680947083024964,0.49639860738846125,-0.49639860738846125,0.8680947083024964,533.3847533307782,-94.03364085586509)" fill="none" stroke="#00a19d" filter="url(#bbburst-blur-1)"></use><use xlink:href="#bbburst-shape-6" width="16.026290049969553" opacity="0.6662833995876769" transform="matrix(0.9784974044971333,0.2062591316581485,-0.2062591316581485,0.9784974044971333,499.70801224189154,155.01769431030232)" fill="#ffbd9b" filter="url(#bbburst-blur-1)"></use><use xlink:href="#bbburst-shape-8" width="10.193083701745433" opacity="0.7808502144602958" transform="matrix(0.9175867959526371,-0.39753549765193735,0.39753549765193735,0.9175867959526371,173.2674007389307,-40.84476167084)" fill="none" stroke="#ffa6d5"></use><use xlink:href="#bbburst-shape-1" width="13.148854246349035" opacity="0.6999212254341358" transform="matrix(0.7925903188838098,-0.6097545296360336,0.6097545296360336,0.7925903188838098,26.966007669931003,33.3622987469617)" fill="#2c2891" filter="url(#bbburst-blur-1)"></use><use xlink:href="#bbburst-shape-6" width="25.612555246047396" opacity="0.45677127591385713" transform="matrix(0.9451952728448542,0.3265055837068361,-0.3265055837068361,0.9451952728448542,281.5870746041637,77.99526448303328)" fill="#ffbd9b" filter="url(#bbburst-blur-2)"></use><use xlink:href="#bbburst-shape-10" width="22.635076069832685" opacity="0.4759358518873815" transform="matrix(0.9997250844623862,0.023446865391236627,-0.023446865391236627,0.9997250844623862,427.5866445780174,233.818291729914)" fill="none" stroke="#2c2891" filter="url(#bbburst-blur-2)"></use><use xlink:href="#bbburst-shape-4" width="27.86221247183218" opacity="0.011833092027332959" transform="matrix(1.6396966712561831,-0.611469399292714,0.611469399292714,1.6396966712561831,492.18173239785654,14.26500274339071)" fill="#ffa6d5" filter="url(#bbburst-blur-4)"></use><use xlink:href="#bbburst-shape-4" width="6.246822534291098" opacity="0.9085513625324291" transform="matrix(0.8776238257881304,-0.4793499978189271,0.4793499978189271,0.8776238257881304,233.93068506383543,80.22509861744322)" fill="#ffa6d5"></use><use xlink:href="#bbburst-shape-8" width="38.124248243868884" opacity="0.1602797999474842" transform="matrix(0.9963958315322319,0.7547816551196724,-0.7547816551196724,0.9963958315322319,317.2273996826299,-108.12108745627893)" fill="none" stroke="#2c2891" filter="url(#bbburst-blur-3)"></use><use xlink:href="#bbburst-shape-4" width="20.923912263540245" opacity="0.43606222156370844" transform="matrix(0.9483486038043408,-0.31723008316103524,0.31723008316103524,0.9483486038043408,168.6115460345095,-211.49077072220922)" fill="#ffbd9b" filter="url(#bbburst-blur-2)"></use><use xlink:href="#bbburst-shape-4" width="28.870942326462583" opacity="-0.004659094099600303" transform="matrix(1.4617560287758153,-0.9621690664002651,0.9621690664002651,1.4617560287758153,357.336993401796,-439.8816728773228)" fill="#ffbd9b" filter="url(#bbburst-blur-4)"></use><use xlink:href="#bbburst-shape-10" width="7.5670425610169225" opacity="0.8585619851574036" transform="matrix(0.8657422005757289,0.5004902018444461,-0.5004902018444461,0.8657422005757289,562.6332341192619,-1.8126514547598163)" fill="none" stroke="#00a19d"></use><use xlink:href="#bbburst-shape-10" width="29.92515808922113" opacity="-0.11095726115332338" transform="matrix(1.6046329928049545,0.6983215293844339,-0.6983215293844339,1.6046329928049545,1004.9473987889507,-609.6404622950038)" fill="none" stroke="#2c2891" filter="url(#bbburst-blur-4)"></use><use xlink:href="#bbburst-shape-1" width="7.993581663616494" opacity="0.8351787046735318" transform="matrix(0.8545843627207794,-0.5193125908286061,0.5193125908286061,0.8545843627207794,257.38497484015363,88.64256617306671)" fill="#2c2891"></use><use xlink:href="#bbburst-shape-6" width="25.28332790390505" opacity="0.332617135268235" transform="matrix(1.2431978427451993,-0.13022720066745874,0.13022720066745874,1.2431978427451993,410.5786573154211,194.27985553242297)" fill="#00a19d" filter="url(#bbburst-blur-3)"></use><use xlink:href="#bbburst-shape-10" width="9.971167011886768" opacity="0.7577151433282101" transform="matrix(0.9807808550985081,-0.1951125682067643,0.1951125682067643,0.9807808550985081,227.59866119872902,-53.65237192989383)" fill="none" stroke="#ffa6d5" filter="url(#bbburst-blur-1)"></use><use xlink:href="#bbburst-shape-1" width="7.596167099961429" opacity="0.8758775640792181" transform="matrix(0.7484277351211728,-0.6632163487892858,0.6632163487892858,0.7484277351211728,147.2732708433507,49.463869641630595)" fill="#ffa6d5"></use><use xlink:href="#bbburst-shape-10" width="9.716561226074305" opacity="0.76195835511495" transform="matrix(0.9160192305783568,0.40113435306719275,-0.40113435306719275,0.9160192305783568,620.851155291544,-53.61612675534133)" fill="none" stroke="#00a19d" filter="url(#bbburst-blur-1)"></use><use xlink:href="#bbburst-shape-1" width="23.993615546106064" opacity="0.42338140434593396" transform="matrix(0.955443085763437,0.2951753883148826,-0.2951753883148826,0.955443085763437,548.5359041994056,-241.75582639211518)" fill="#00a19d" filter="url(#bbburst-blur-2)"></use><use xlink:href="#bbburst-shape-6" width="25.581686050414852" opacity="0.2951137551206853" transform="matrix(1.2366149920086495,-0.18243728111174987,0.18243728111174987,1.2366149920086495,87.50457417343368,132.56997466248595)" fill="#2c2891" filter="url(#bbburst-blur-3)"></use><use xlink:href="#bbburst-shape-8" width="10.642308794140511" opacity="0.7789016495143682" transform="matrix(0.9229242894668885,-0.3849815007400213,0.3849815007400213,0.9229242894668885,275.1160359167121,126.37626382304205)" fill="none" stroke="#ff5c58"></use><use xlink:href="#bbburst-shape-4" width="6.092913975957477" opacity="0.9383005217347246" transform="matrix(0.9640472438232782,-0.2657309008691702,0.2657309008691702,0.9640472438232782,299.511500042888,41.54947137093984)" fill="#2c2891"></use><use xlink:href="#bbburst-shape-10" width="5.58449211839087" opacity="0.8617446892622768" transform="matrix(0.7936496502022773,-0.6083750757006756,0.6083750757006756,0.7936496502022773,159.40039829451035,146.25521255927754)" fill="none" stroke="#ffa6d5"></use><use xlink:href="#bbburst-shape-10" width="20.398510598617396" opacity="0.6344494224783133" transform="matrix(0.9993680774294845,-0.03554498297785361,0.03554498297785361,0.9993680774294845,219.4910004183227,52.508120617964266)" fill="none" stroke="#00a19d" filter="url(#bbburst-blur-1)"></use><use xlink:href="#bbburst-shape-6" width="6.063659210650832" opacity="0.8637145293525132" transform="matrix(0.9389538673019036,-0.34404307154599,0.34404307154599,0.9389538673019036,198.20758748981288,25.467922489750038)" fill="#ffa6d5"></use><use xlink:href="#bbburst-shape-10" width="16.03931245855845" opacity="0.5530448837694522" transform="matrix(0.9754915076148489,-0.22003708453646859,0.22003708453646859,0.9754915076148489,501.3777173320865,51.05452258784902)" fill="none" stroke="#00a19d" filter="url(#bbburst-blur-2)"></use><use xlink:href="#bbburst-shape-6" width="4.60210581978534" opacity="0.9380858545453454" transform="matrix(0.9387731166265502,-0.34453597127045177,0.34453597127045177,0.9387731166265502,242.18591232592547,46.68467357990562)" fill="#00a19d"></use><use xlink:href="#bbburst-shape-6" width="7.3685959062223265" opacity="0.8578207708420168" transform="matrix(0.9244529263269432,0.3812961932744036,-0.3812961932744036,0.9244529263269432,532.0820007609266,90.48651921809858)" fill="#ff5c58"></use><use xlink:href="#bbburst-shape-4" width="5.398926742882911" opacity="0.9070561399556424" transform="matrix(0.9654830060020019,0.2604660536832745,-0.2604660536832745,0.9654830060020019,517.9865247163918,51.58043214002038)" fill="#2c2891"></use><use xlink:href="#bbburst-shape-8" width="12.070603788002352" opacity="0.7109292650038348" transform="matrix(0.7867545462679427,0.6172659750275593,-0.6172659750275593,0.7867545462679427,583.1354136034383,197.4934860144918)" fill="none" stroke="#ffa6d5" filter="url(#bbburst-blur-1)"></use><use xlink:href="#bbburst-shape-1" width="33.48044394467229" opacity="0.02675070619524289" transform="matrix(1.5053191830912622,-0.892476418185632,0.892476418185632,1.5053191830912622,268.3152097698725,-546.3958633827745)" fill="#00a19d" filter="url(#bbburst-blur-4)"></use><use xlink:href="#bbburst-shape-4" width="26.12134898351805" opacity="0.29480945114382673" transform="matrix(1.0099456045556954,0.7365526972584047,-0.7365526972584047,1.0099456045556954,920.1681689780753,-222.61474719799082)" fill="#00a19d" filter="url(#bbburst-blur-3)"></use><use xlink:href="#bbburst-shape-6" width="4.449081871754812" opacity="0.9627797451403758" transform="matrix(0.8440623871250003,0.5362449875204861,-0.5362449875204861,0.8440623871250003,597.4853798963924,68.35619634371693)" fill="#ffa6d5"></use><use xlink:href="#bbburst-shape-4" width="7.895313395193007" opacity="0.7632173119982272" transform="matrix(0.731949664027191,0.6813587082664183,-0.6813587082664183,0.731949664027191,714.105545690403,7.700689201873217)" fill="#ffbd9b" filter="url(#bbburst-blur-1)"></use><use xlink:href="#bbburst-shape-10" width="23.00561488549217" opacity="0.22278955291903857" transform="matrix(1.1985706424591167,-0.3548639387640565,0.3548639387640565,1.1985706424591167,393.08493919455964,-391.85024236265025)" fill="none" stroke="#00a19d" filter="url(#bbburst-blur-3)"></use><use xlink:href="#bbburst-shape-10" width="6.17330281539058" opacity="0.9083184546020726" transform="matrix(0.9040616610342861,0.42740205082325894,-0.42740205082325894,0.9040616610342861,547.0460026845682,72.49447884590609)" fill="none" stroke="#2c2891"></use><use xlink:href="#bbburst-shape-6" width="25.155854913741713" opacity="0.11265440855925946" transform="matrix(1.2310533069210334,-0.216812719919261,0.216812719919261,1.2310533069210334,586.2678905037718,-365.7842740094262)" fill="#ff5c58" filter="url(#bbburst-blur-3)"></use><use xlink:href="#bbburst-shape-10" width="12.31446503179387" opacity="0.7086710802880205" transform="matrix(0.7146837548234664,-0.6994477325657947,0.6994477325657947,0.7146837548234664,246.28920898988292,131.262218298687)" fill="none" stroke="#ffa6d5" filter="url(#bbburst-blur-1)"></use><use xlink:href="#bbburst-shape-6" width="25.148835496544805" opacity="0.46221733010143795" transform="matrix(0.7962367562006541,-0.6049851469871471,0.6049851469871471,0.7962367562006541,9.663752336497453,287.68230982126545)" fill="#00a19d" filter="url(#bbburst-blur-2)"></use><use xlink:href="#bbburst-shape-6" width="11.02893792059513" opacity="0.730464905109534" transform="matrix(0.9437205509273148,0.33074389148923905,-0.33074389148923905,0.9437205509273148,632.5120903218625,-39.29830386773597)" fill="#00a19d" filter="url(#bbburst-blur-1)"></use><use xlink:href="#bbburst-shape-1" width="22.479979451977197" opacity="0.4687475274612153" transform="matrix(0.7856738995483801,-0.61864086800699,0.61864086800699,0.7856738995483801,268.052869339911,-111.48775603713977)" fill="#ffa6d5" filter="url(#bbburst-blur-2)"></use><use xlink:href="#bbburst-shape-10" width="6.605913438224404" opacity="0.894905020608569" transform="matrix(0.9325164277433196,-0.3611275563964044,0.3611275563964044,0.9325164277433196,253.99403365965324,-19.08192610447719)" fill="none" stroke="#ffa6d5"></use><use xlink:href="#bbburst-shape-10" width="23.217061686415096" opacity="0.47511450465402183" transform="matrix(0.8592670444791193,-0.5115272683563598,0.5115272683563598,0.8592670444791193,0.8133719038455922,-85.11944927122931)" fill="none" stroke="#2c2891" filter="url(#bbburst-blur-2)"></use><use xlink:href="#bbburst-shape-4" width="7.56104273230856" opacity="0.9022689668127344" transform="matrix(0.994011875148026,0.10927210103546585,-0.10927210103546585,0.994011875148026,412.86198799291355,-32.6575208839526)" fill="#ffa6d5"></use><use xlink:href="#bbburst-shape-4" width="8.181138283190652" opacity="0.7780212504448759" transform="matrix(0.9371947727083568,0.34880647644235546,-0.34880647644235546,0.9371947727083568,635.491094007944,19.565933457264975)" fill="#2c2891"></use><use xlink:href="#bbburst-shape-10" width="22.1746544792292" opacity="0.1625701414781361" transform="matrix(1.1945514034082156,-0.36816700641891104,0.36816700641891104,1.1945514034082156,608.6525747251465,1.9520825831460797)" fill="none" stroke="#ffbd9b" filter="url(#bbburst-blur-3)"></use></svg>